<svg width="482" height="721" viewBox="0 0 482 721" fill="none" xmlns="http://www.w3.org/2000/svg">
<path d="M287.745 329.992L287.281 329.422L286.921 330.064C227.452 436.441 142.95 528.648 42.7028 595.311C-33.8131 646.126 -118.372 682.149 -208.59 702.368C-270.426 716.239 -333.315 722.186 -395.984 720.09L-396.001 720.089L-396.017 720.09C-458.686 722.185 -521.559 716.238 -583.41 702.368C-673.628 682.149 -758.173 646.126 -834.704 595.311C-934.951 528.648 -1019.44 436.441 -1078.91 330.064L-1079.27 329.422L-1079.73 329.992C-1105.5 361.613 -1147.2 376.908 -1187.63 367.846C-1197.38 365.655 -1206.85 362.071 -1215.78 357.242C-1268.97 328.215 -1289.03 260.649 -1260.54 206.587C-1198.8 89.5529 -1074.67 8.75482 -944.321 0.717422L-944.32 0.717385C-915.134 -1.11698 -887.012 8.72754 -865.149 28.4687L-865.149 28.4691C-843.256 48.1964 -830.234 75.3871 -828.486 105.071L-828.485 105.071C-825.69 152.023 -852.128 194.055 -891.774 212.759L-892.251 212.984L-892.001 213.448C-849.575 292.277 -788.316 360.298 -714.969 409.022C-631.725 464.416 -533.749 495.195 -434.599 497.787C-421.733 498.166 -408.881 498.04 -396 497.366C-383.119 498.019 -370.268 498.154 -357.388 497.787C-258.238 495.195 -160.261 464.416 -77.0162 409.022C-3.67041 360.298 57.5756 292.277 100.001 213.448L100.251 212.984L99.7739 212.759C60.1279 194.055 33.7019 152.023 36.4843 105.071C38.231 75.3873 51.2697 48.1965 73.1628 28.4691L72.8281 28.0976L73.1632 28.4687C95.0261 8.72748 123.134 -1.11907 152.32 0.717383L152.321 0.717422C282.673 8.75482 406.815 89.5529 468.54 206.587C497.034 260.649 476.97 328.217 423.779 357.243C414.849 362.071 405.381 365.655 395.639 367.846C355.199 376.908 313.499 361.612 287.745 329.992Z" stroke="#69E6A6"/>
</svg>
