<svg width="165" height="95" viewBox="0 0 165 95" fill="none" xmlns="http://www.w3.org/2000/svg">
<path d="M123.352 93.7139C114.788 88.9559 107.119 81.5771 100.123 71.3614C98.6179 69.1635 98.3608 68.6381 98.7902 68.6381C98.9058 68.6381 99.4455 68.2756 99.9894 67.8325L100.978 67.0269L99.7392 64.5372C99.0576 63.1678 98.4758 62.0159 98.4464 61.9773C98.4169 61.9388 97.8567 62.0941 97.2014 62.3226C96.0552 62.7222 95.9935 62.7163 95.5732 62.1656C95.154 61.6164 95.1183 61.6837 94.6866 63.8379C92.6202 74.1511 86.3527 83.0103 77.0749 88.7323C70.1292 93.0161 62.1008 94.905 53.8489 94.1969C47.7061 93.6698 42.5235 91.978 36.6508 88.5826L35.2897 87.7957L31.7684 88.8495C27.8525 90.0215 24.149 90.6969 21.6789 90.6895C19.6348 90.6834 18.7299 90.1047 18.7299 88.8039C18.7299 87.6256 19.5563 87.0025 21.3456 86.8318C22.1278 86.7571 24.054 86.5731 25.626 86.4227C29.3369 86.0677 31.6173 85.6099 31.6048 85.2224C31.5997 85.0522 30.6953 83.9825 29.5958 82.8452C22.1663 75.1606 18.4978 65.9559 18.7133 55.5397C19.0016 41.6068 27.1555 28.7735 39.6885 22.5274C43.4865 20.6346 46.7962 19.5507 50.8362 18.8768C60.4682 17.2701 70.4834 19.4722 78.5913 24.9794C79.8539 25.837 81.2398 26.7282 81.671 26.9599L82.4551 27.381L80.5136 27.9703C79.4458 28.2945 76.4956 29.1701 73.9577 29.9161C71.4198 30.6622 68.5411 31.5833 67.5606 31.9631C65.5729 32.7331 60.6811 35.0185 60.4697 35.276C60.3948 35.3671 59.7211 35.7857 58.9725 36.2061C56.4166 37.6414 51.898 41.1609 49.5625 43.5356C46.1676 46.9875 43.8164 50.6292 42.4736 54.5153C41.8972 56.1832 41.823 56.8747 41.8237 60.5679C41.8244 64.6727 41.8399 64.7819 42.8249 67.5939C43.711 70.1236 44.8646 72.305 46.2716 74.1115C47.0598 75.1233 49.7046 77.5151 50.0356 77.5152C50.87 77.5154 59.2716 72.041 63.0558 69.0312C69.2105 64.1361 77.4728 54.2598 81.0506 47.5212C81.4433 46.7814 81.9113 45.9946 82.0905 45.7726C82.6677 45.058 85.4079 39.0026 86.5338 35.9539C87.8422 32.4111 88.5661 29.9705 89.1668 27.0767C89.4125 25.8931 89.7017 24.501 89.8094 23.9832C90.0121 23.0086 90.5844 22.8978 90.5043 23.8487C90.2779 26.5352 88.1822 34.7009 86.9142 37.837C86.7348 38.2808 86.4494 39.0071 86.28 39.451C85.518 41.4483 83.0334 46.5659 81.7417 48.7989C81.4208 49.3538 80.8988 50.2617 80.5819 50.8165C80.2649 51.3713 79.7749 52.1466 79.493 52.5393C79.2111 52.932 78.9805 53.3759 78.9805 53.5257C78.9805 53.6754 78.8828 53.8383 78.7634 53.8876C78.6441 53.9369 77.8373 55.0248 76.9707 56.305C76.1041 57.5853 75.1902 58.8564 74.9398 59.1296C74.6894 59.4028 73.5058 60.8369 72.3095 62.3165C67.9185 67.7474 61.5851 73.4717 55.4934 77.5153C54.0446 78.477 52.8567 79.3305 52.8535 79.412C52.8427 79.6848 55.2459 80.7154 56.8456 81.124C61.7071 82.366 67.5614 81.7733 72.9911 79.4893C75.3522 78.4962 75.5593 78.3865 78.1638 76.7496C85.1449 72.3622 90.1128 65.1714 92.5029 55.9948C94.1404 49.7077 94.7604 42.9208 94.2723 36.6274C94.0944 34.3336 93.8341 32.0332 93.6939 31.5153C93.5537 30.9975 93.2344 29.5449 92.9844 28.2873C92.5951 26.329 91.7488 23.5774 90.7517 21.0279C90.491 20.3616 90.4882 20.363 89.9312 21.4314C89.2854 22.6703 87.5032 24.7902 87.1075 24.7902C86.9594 24.7902 87.2613 24.2757 87.7784 23.6469C88.7544 22.46 89.8663 20.7537 89.8681 20.4402C89.8685 20.341 89.5016 20.1801 89.0525 20.0826L88.2358 19.9054V12.7981V5.69082H117.091C137.228 5.69082 145.946 5.77694 145.946 5.97586C145.946 6.13262 146.431 7.26623 147.025 8.49499C149.331 13.2696 153 17.0855 157.235 19.1132C159.235 20.0708 163.313 21.2931 164.508 21.2931C164.96 21.2931 165.001 21.6019 165 24.992C164.998 31.263 163.992 39.8892 162.402 47.2522C158.262 66.4231 148.503 81.0857 133.015 91.4012C129.357 93.8377 127.219 95.0007 126.4 95C125.996 94.9997 124.624 94.4209 123.352 93.7139ZM129.508 92.6468C135.574 89.0092 142.329 83.3481 146.768 78.1817C157.382 65.8268 163.381 48.1311 164.101 27.0525L164.267 22.1862L162.524 21.8494C155.334 20.4596 149.231 15.449 145.908 8.20743L145.124 6.49784H117.265H89.4054L89.2547 8.58263C89.1718 9.72926 89.0855 12.5671 89.0629 14.889L89.0219 19.1105L90.3822 19.1001C91.1304 19.094 91.8722 19.169 92.0308 19.2658C92.1894 19.3626 92.3206 20.1913 92.3224 21.1073C92.3255 22.6163 93.5136 27.1363 94.0455 27.6619C94.1441 27.7593 94.2246 25.5793 94.2246 22.8175V17.7961H92.5913H90.958V12.954V8.1119H117.333H143.708L144.698 10.1728C147.766 16.5576 153.583 21.4776 160.269 23.3429L162.082 23.8487L161.9 28.5563C161.018 51.366 154.207 68.3335 140.516 81.8256C136.821 85.4678 134.287 87.5279 129.868 90.4828L126.639 92.6424L125.063 91.7723C119.175 88.5204 112.194 82.7029 107.955 77.5153C105.428 74.4238 102.014 69.4083 102.304 69.2146C102.447 69.1194 103.014 68.7594 103.566 68.4144C104.118 68.0695 104.569 67.7336 104.569 67.6681C104.569 67.6025 104.082 66.7873 103.487 65.8564C102.892 64.9254 101.778 62.8655 101.011 61.2787L99.6161 58.3936L98.6554 58.9537C97.7684 59.4709 97.6575 59.4806 97.2098 59.0802C96.9431 58.8417 96.438 58.0197 96.0873 57.2535L95.4496 55.8604L95.3703 57.9369C95.3135 59.4232 95.4122 60.2452 95.7175 60.8287C96.2107 61.7711 96.2303 61.775 97.7635 61.2405C99.1773 60.7475 99.1246 60.7475 99.1246 61.2408C99.1246 61.463 99.7871 62.9102 100.597 64.4567L102.069 67.2686L100.875 68.2353L99.6813 69.2021L101.377 71.6424C105.231 77.1908 111.988 84.6394 116.138 87.9138C119.561 90.6145 125.422 94.1936 126.422 94.1936C126.701 94.1936 128.09 93.4976 129.508 92.6468ZM63.0184 92.4595C65.9566 91.9882 68.3679 91.2659 68.3528 90.8615C68.3467 90.6968 67.8626 90.0385 67.277 89.3987L66.2123 88.2353L62.4563 87.9867C60.3905 87.85 57.4235 87.6169 55.8628 87.4688C51.4007 87.0453 51.7548 86.9443 49.9661 89.1497C49.0961 90.2224 48.2565 91.1858 48.1003 91.2906C46.3716 92.4502 57.5943 93.3296 63.0184 92.4595ZM130.367 89.1739C134.158 86.547 136.175 84.8156 135.682 84.6099C135.043 84.3428 128.637 80.0441 127.163 78.8935C123.821 76.2846 120.108 72.9067 118.18 70.7223C117.057 69.45 115.998 68.4001 115.826 68.3891C115.602 68.3747 108.983 73.1533 107.046 74.7273C106.465 75.2001 115.381 84.2503 118.937 86.796C122.122 89.0768 126.077 91.5049 126.591 91.4958C126.831 91.4919 128.53 90.4467 130.367 89.1739ZM125.594 88.8037C124.834 88.5023 124.38 87.4039 124.617 86.441C124.888 85.3351 126.319 83.5099 127.195 83.1513C128.64 82.5596 130.483 83.8953 129.986 85.1747C129.867 85.4809 129.707 85.51 129.306 85.298C129.017 85.1453 128.844 84.9192 128.922 84.7954C128.999 84.6716 128.876 84.4178 128.649 84.2313C128.333 83.9725 128.076 83.964 127.563 84.1951C126.701 84.5834 126.707 84.9436 127.58 85.1602C128.944 85.4985 129.14 87.4183 127.925 88.5371C127.293 89.1188 126.59 89.1992 125.594 88.8037ZM127.425 87.3521C127.854 86.5594 127.632 85.8544 126.954 85.8544C126.288 85.8544 125.802 86.3698 125.802 87.0739C125.802 88.2009 126.867 88.3834 127.425 87.3521ZM120.956 85.4028C120.674 85.291 120.685 85.1379 121.013 84.6439C121.403 84.0558 121.377 83.9938 120.484 83.393C118.919 82.3398 119.234 81.8957 122.276 80.8736C123.369 80.506 124.43 80.2053 124.633 80.2053C125.422 80.2053 125.261 81.0392 124.209 82.4029C123.525 83.2888 123.204 83.9296 123.353 84.1077C123.693 84.5118 123.217 85.157 122.719 84.9681C122.49 84.8814 122.156 84.9848 121.977 85.1979C121.634 85.6065 121.526 85.6283 120.956 85.4028ZM122.764 82.3574C123.418 81.4837 123.256 81.3706 122.072 81.8738C121.037 82.3133 121.052 82.292 121.441 82.7544C121.92 83.3247 122.075 83.278 122.764 82.3574ZM116.099 81.2838C115.491 81.0411 114.638 80.018 114.645 79.5402C114.647 79.3882 114.76 79.09 114.896 78.8776C115.097 78.5644 115.222 78.5554 115.557 78.83C115.784 79.0163 115.91 79.322 115.837 79.5094C115.598 80.1257 116.477 80.5919 117.235 80.2506C117.955 79.9264 118.145 79.3983 117.541 79.3983C117.007 79.3983 116.274 78.5032 116.274 77.851C116.274 77.5411 116.591 76.9151 116.979 76.4599C117.912 75.3634 119.246 75.312 120.065 76.341C120.731 77.177 120.774 77.8049 120.235 78.8337C119.825 79.6182 118.067 81.2813 117.648 81.2813C117.516 81.2813 117.244 81.3343 117.045 81.399C116.846 81.4637 116.42 81.4119 116.099 81.2838ZM119.156 78.1899C119.967 76.9667 118.966 76.1654 117.861 77.1535C117.361 77.6007 117.206 78.3467 117.544 78.681C117.938 79.0694 118.734 78.8268 119.156 78.1899ZM111.466 76.8261C111.334 76.4847 111.695 75.9965 112.827 74.988C113.675 74.2327 114.369 73.537 114.369 73.4421C114.369 73.3472 114.062 73.1936 113.688 73.1007C112.96 72.9202 112.79 72.5397 113.348 72.3397C114.067 72.0817 116.403 72.534 116.46 72.9422C116.51 73.3067 112.603 76.9759 111.928 77.1985C111.773 77.2494 111.565 77.0818 111.466 76.8261ZM26.3065 89.5736C27.0551 89.4294 28.0092 89.252 28.4267 89.1792C29.5706 88.9799 36.0835 86.8398 38.5563 85.8508C42.1826 84.4004 50.3389 80.371 51.029 79.689C51.2371 79.4834 51.1851 79.302 50.8482 79.0585C50.4431 78.7658 49.7366 79.0266 45.9306 80.8733C43.486 82.0594 40.5818 83.3217 39.4767 83.6783C38.3716 84.035 37.0999 84.4808 36.6508 84.669C35.9169 84.9765 32.2889 86.0168 31.1224 86.2541C30.8692 86.3056 30.0983 86.4754 29.4093 86.6313C28.7204 86.7873 26.3929 87.0563 24.2372 87.2292C20.3146 87.5438 19.365 87.8345 19.365 88.7207C19.365 88.9197 19.6217 89.3362 19.9355 89.6462C20.4572 90.1618 20.6956 90.194 22.7257 90.0228C23.9466 89.9199 25.558 89.7177 26.3065 89.5736ZM67.7353 85.4191C68.5447 84.7357 69.1539 84.1243 69.089 84.0602C69.0242 83.9961 67.579 84.1461 65.8774 84.3933C60.7291 85.1415 56.7861 84.6174 52.7144 82.6437C51.5183 82.0639 50.492 81.6365 50.4339 81.694C50.3757 81.7515 50.6342 82.6203 51.0084 83.6247L51.6886 85.4509L53.1529 85.6525C54.8146 85.8812 63.2559 86.5703 65.0681 86.6252C66.1205 86.6571 66.44 86.5126 67.7353 85.4191ZM31.7964 82.243C30.2244 78.1948 30.0623 77.9588 28.2029 77.0099C27.2234 76.51 26.3482 76.1739 26.2581 76.263C26.0553 76.4633 28.0287 79.0859 29.6949 80.8304C30.3765 81.544 30.9751 82.2401 31.025 82.3771C31.0749 82.5142 31.3024 82.6264 31.5305 82.6264C31.7776 82.6264 31.8851 82.4714 31.7964 82.243ZM86.257 77.6248C87.25 77.4758 87.9641 76.5876 89.8346 73.1747C91.6651 69.8347 93.6802 63.1342 93.6802 60.3873C93.6802 58.9978 93.1019 59.3939 92.5763 61.1434C91.9785 63.1335 90.0269 67.2984 88.6864 69.4451C87.1679 71.8767 85.5275 73.8263 83.0993 76.0851L81.0221 78.0175L83.1998 77.8872C84.3976 77.8155 85.7733 77.6974 86.257 77.6248ZM32.2953 73.7115C33.3433 72.3673 34.3189 71.1055 34.4631 70.9076C34.744 70.5223 34.4914 68.9357 32.9892 61.6496C32.4871 59.2143 31.9389 57.26 31.6686 56.9422C31.4144 56.6433 30.104 55.1902 28.7565 53.7131C27.409 52.236 26.0473 50.7415 25.7305 50.3919L25.1544 49.7563L23.8519 50.7388C23.1355 51.2792 22.0166 52.1528 21.3655 52.68L20.1817 53.6386L20.184 56.498C20.1863 61.0086 20.9683 65.3546 22.482 69.2735C23.8039 72.6957 23.9432 72.8633 26.8709 74.5585C28.3575 75.4193 29.7576 76.1307 29.9822 76.1395C30.2068 76.1484 31.248 75.0557 32.296 73.7115H32.2953ZM110.758 70.8806C113.056 69.1549 114.999 67.6418 115.077 67.5181C115.154 67.3945 114.676 66.5972 114.014 65.7464C109.32 59.7121 105.442 50.3567 103.629 40.6958C102.566 35.0321 102.391 32.1611 102.391 20.4269V8.91889H97.0756H91.7601L91.8354 12.8867L91.9107 16.8545L93.476 16.9352L95.0412 17.0159V23.3017C95.0412 27.0609 94.9365 29.6235 94.7807 29.6771C94.626 29.7304 94.7901 31.4051 95.1849 33.8019C95.5504 36.0212 95.8514 38.5855 95.8537 39.5003C95.8568 40.8577 96.5752 45.3223 97.3876 49.037C97.5281 49.6792 97.4315 49.783 96.36 50.1397C95.2446 50.5111 95.182 50.5856 95.2594 51.4484C95.4302 53.3508 97.3104 58.4159 97.8458 58.4159C97.9897 58.4159 98.5264 58.16 99.0386 57.8472C99.5507 57.5344 100.006 57.3226 100.049 57.3764C100.093 57.4303 100.873 58.9875 101.782 60.8369C102.691 62.6863 103.935 65.01 104.546 66.0005C105.158 66.9911 105.658 67.8523 105.658 67.9143C105.658 67.9762 105.162 68.3661 104.557 68.7807C103.797 69.3009 103.508 69.6664 103.622 69.9605C103.846 70.5379 106.262 74.0182 106.439 74.0182C106.517 74.0182 108.46 72.6063 110.758 70.8806ZM41.4296 69.4907C40.2918 66.0499 39.9619 63.8735 40.1222 60.8666C40.3015 57.506 40.8949 55.3121 42.4846 52.132C43.1963 50.7083 43.7192 49.4848 43.6467 49.4131C43.5742 49.3414 42.7688 49.9154 41.8569 50.6885C40.9451 51.4617 39.842 52.3969 39.4057 52.7668C38.2537 53.7434 36.0071 55.7155 34.8091 56.8018L33.7707 57.7434L34.212 59.8954C34.4548 61.079 34.9993 63.7852 35.422 65.909C35.8448 68.0329 36.2942 69.8694 36.4207 69.9901C36.8416 70.3919 42.0938 72.3813 42.1703 72.1679C42.2117 72.0525 41.8784 70.8478 41.4296 69.4907ZM119.787 61.5346L123.636 56.3142L122.964 54.0207C121.946 50.5485 121.576 46.6135 121.957 43.3036C122.383 39.5963 122.901 37.7323 124.297 34.8708C127.654 27.9925 133.527 26.2817 138.277 30.7982C138.926 31.4145 139.633 32.2517 139.85 32.6586C140.066 33.0655 140.332 33.3938 140.44 33.3882C140.549 33.3826 141.118 32.6865 141.706 31.8414C142.294 30.9963 143.589 29.2153 144.585 27.8838C150.25 20.3088 150.822 19.4564 150.446 19.1481C150.179 18.9289 143.713 18.8683 126.813 18.9265L103.549 19.0066L103.386 20.8896C103.296 21.9253 103.265 25.2542 103.316 28.2873C103.55 42.1574 107.525 55.317 114.306 64.6703C115.137 65.8169 115.844 66.7551 115.878 66.7551C115.911 66.7551 117.671 64.4059 119.787 61.5346ZM135.629 62.4372C139.577 60.4466 142.474 54.3611 142.856 47.2522C143.347 38.1384 139.041 29.758 133.441 28.9281C129.39 28.3278 125.217 32.5487 123.304 39.182C122.761 41.0648 122.685 41.9229 122.697 46.0416C122.713 51.414 123.122 53.4518 124.908 57.0552C126.235 59.731 128.697 62.2346 130.586 62.8291C132.249 63.352 134.1 63.2082 135.629 62.4372ZM129.743 54.4503C127.114 53.5208 125.083 51.503 124.157 48.8987C121.876 42.4863 127.518 35.9598 134.292 37.1737C136.415 37.5541 137.288 37.9986 138.931 39.5365C141.609 42.0421 142.439 45.2816 141.301 48.7901C140.782 50.389 140.403 51.0096 139.237 52.1651C138.451 52.9438 137.219 53.8372 136.5 54.1504C134.67 54.9479 131.543 55.0867 129.743 54.4503ZM136.703 53.2764C142.819 50.0549 142.58 41.4108 136.293 38.4716C134.353 37.5644 131.864 37.4355 129.788 38.1345C128.027 38.7274 125.762 40.8283 124.967 42.6064C124.239 44.2344 124.107 46.8225 124.657 48.6477C125.361 50.9822 127.791 53.1922 130.702 54.1458C132.112 54.6081 134.957 54.196 136.703 53.2764ZM130.293 51.6659C129.694 51.5151 128.876 51.4544 128.474 51.5309C127.773 51.6645 127.737 51.6136 127.568 50.2681C127.471 49.4971 127.432 48.382 127.481 47.7902L127.571 46.7141L128.252 48.0547C129.086 49.6989 130.285 50.4492 132.077 50.4492C133.628 50.4492 134.785 49.7879 134.785 48.9017C134.785 48.0413 134.049 47.4611 132.312 46.9523C128.926 45.9603 127.544 44.7383 127.827 42.9879C128.325 39.909 130.39 38.8404 134.782 39.3883L137.168 39.6859L137.318 41.3142C137.4 42.2098 137.422 42.9869 137.368 43.0411C137.313 43.0952 136.801 42.6594 136.23 42.0724C134.914 40.7184 133.419 40.3588 132.359 41.141C131.972 41.4271 131.654 41.8853 131.654 42.1594C131.654 42.8288 133.133 43.7749 134.523 43.9945C135.963 44.2221 137.622 45.0565 138.17 45.8289C138.71 46.5918 138.724 48.7819 138.195 49.7935C137.355 51.399 133.171 52.3903 130.293 51.6659ZM22.928 49.4463C24.3823 48.2609 24.8177 47.7069 25.4118 46.2855C25.8081 45.3376 26.7437 43.1095 27.491 41.334C29.5618 36.4143 29.6655 36.0873 29.772 34.1381C29.9207 31.415 29.4007 31.6833 26.5994 35.775C23.9304 39.6735 21.7774 44.5109 21.0122 48.3282C20.8342 49.2159 20.6275 50.1541 20.5529 50.413C20.3109 51.2526 21.1122 50.9265 22.928 49.4463ZM95.9717 49.3754C96.4859 49.1804 96.4987 48.9254 96.0873 47.0636C95.7943 45.7373 95.7578 45.6905 95.5627 46.3917C95.3769 47.0594 95.2152 48.7873 95.2871 49.337C95.319 49.5813 95.4147 49.5866 95.9717 49.3754ZM46.1456 46.3527C49.5253 42.0124 57.9468 35.5735 63.1238 33.3716C63.7601 33.1009 64.2808 32.7779 64.2808 32.6538C64.2808 32.5296 63.6989 32.1199 62.9877 31.7434C62.2766 31.3668 60.4697 30.4157 58.9725 29.63C57.4753 28.8442 56.0468 28.0771 55.7981 27.9254C55.4374 27.7055 54.9411 27.9623 53.3481 29.1929C52.2494 30.0418 49.7274 31.956 47.7436 33.4468C45.7598 34.9376 44.1309 36.2932 44.1238 36.4592C44.1166 36.6251 44.1187 38.5767 44.1269 40.796C44.1451 45.2458 44.3605 47.9247 44.6999 47.9247C44.8216 47.9247 45.4719 47.2173 46.1451 46.3527H46.1456ZM44.2778 34.1736C45.0237 33.5644 47.5633 31.6038 49.9213 29.8167C52.2794 28.0297 54.2087 26.4187 54.2087 26.2368C54.2087 25.859 52.5008 20.7507 52.2294 20.3167C52.1067 20.1204 51.3001 20.1902 49.6589 20.5391C43.4832 21.8517 38.0942 24.4628 33.1851 28.521L31.3528 30.0358L31.3477 32.348L31.3426 34.6602L34.6772 34.9249C36.5113 35.0705 39.1166 35.2102 40.4668 35.2355L42.9217 35.2814L44.2778 34.1736ZM79.3935 27.7417C79.5828 27.4391 78.7263 26.6239 77.5513 25.9883C76.6164 25.4826 76.6098 25.6967 77.5202 26.995C78.214 27.9844 79.0367 28.3123 79.3935 27.7417ZM147.911 16.5183C146.119 14.4477 144.991 12.7606 143.997 10.6602L143.171 8.91541L123.257 8.98444L103.344 9.05348L103.269 13.5593L103.195 18.0652H126.222H149.25L147.911 16.5183ZM105.59 15.3535C105.069 15.0539 104.937 14.299 105.405 14.299C105.565 14.299 105.886 14.4866 106.118 14.7159C106.641 15.2323 107.391 15.1199 107.51 14.5073C107.571 14.1925 107.36 13.9928 106.833 13.869C105.934 13.6576 105.113 13.0159 105.113 12.524C105.113 12.0916 106.169 11.3399 106.777 11.3399C107.383 11.3399 108.573 12.3129 108.299 12.5844C108.18 12.7025 107.845 12.6524 107.555 12.473C106.875 12.0537 105.852 12.0493 105.992 12.4659C106.052 12.6416 106.46 12.9 106.9 13.04C107.339 13.1801 107.852 13.4143 108.04 13.5605C108.472 13.8983 108.48 14.8993 108.053 15.3207C107.657 15.7119 106.245 15.7303 105.59 15.353L105.59 15.3535ZM110.285 13.8955C110.285 12.1947 110.266 12.1469 109.582 12.1469C109.141 12.1469 108.921 12.0219 108.992 11.8107C109.092 11.5165 110.108 11.4433 112.139 11.5842C112.696 11.6228 112.223 12.1469 111.63 12.1469C111.162 12.1469 111.102 12.344 111.102 13.8955C111.102 15.2704 111.015 15.644 110.694 15.644C110.373 15.644 110.285 15.2704 110.285 13.8955ZM112.191 15.5195C112.191 15.4509 112.448 14.7549 112.763 13.9727C113.078 13.1905 113.441 12.2804 113.571 11.9503C113.929 11.0403 114.587 11.4741 115.314 13.0981C116.308 15.319 116.378 15.644 115.859 15.644C115.61 15.644 115.342 15.4019 115.264 15.106C115.158 14.7044 114.893 14.568 114.219 14.568C113.556 14.568 113.271 14.7105 113.144 15.106C112.999 15.5571 112.191 15.9077 112.191 15.5195ZM114.637 13.6937C114.634 13.5088 114.525 13.1898 114.394 12.9849C114.202 12.686 114.095 12.7225 113.853 13.1689C113.441 13.931 113.469 14.03 114.096 14.03C114.396 14.03 114.639 13.8787 114.637 13.6937ZM117 15.4647C116.9 15.3661 116.819 14.4582 116.819 13.4471C116.819 12.0194 116.907 11.6089 117.214 11.6089C117.509 11.6089 117.63 12.0364 117.69 13.2902L117.771 14.9715L118.792 15.055C119.354 15.1009 119.813 15.2522 119.813 15.3912C119.813 15.6762 117.281 15.7424 117 15.4647ZM122.441 15.1521C122.193 14.8815 121.991 14.5789 121.991 14.4796C121.991 14.1549 122.565 14.2899 122.996 14.7159C123.518 15.2315 124.268 15.1203 124.387 14.5099C124.449 14.1902 124.215 13.9875 123.6 13.83C123.118 13.7067 122.55 13.3469 122.337 13.0305C121.992 12.5166 122.011 12.3961 122.515 11.8977C123.218 11.2027 123.92 11.1892 124.751 11.8548C125.49 12.4471 125.225 12.9622 124.432 12.473C123.752 12.0536 122.729 12.0493 122.87 12.4659C122.929 12.6416 123.49 12.9543 124.117 13.1608C125.083 13.4788 125.257 13.6481 125.257 14.2671C125.257 14.669 125.11 15.1431 124.931 15.3207C124.435 15.8107 122.953 15.71 122.441 15.1515V15.1521ZM125.802 15.5276C125.802 15.4636 126.162 14.5254 126.602 13.4428C127.135 12.133 127.55 11.4744 127.843 11.4744C128.137 11.4744 128.552 12.133 129.085 13.4428C130.015 15.7316 129.999 15.644 129.495 15.644C129.28 15.644 129.027 15.4019 128.932 15.106C128.805 14.7084 128.52 14.568 127.843 14.568C127.166 14.568 126.882 14.7084 126.754 15.106C126.611 15.5516 125.802 15.9098 125.802 15.5276ZM128.247 13.6937C128.241 13.2054 127.798 12.5875 127.647 12.858C127.185 13.6883 127.205 14.03 127.716 14.03C128.01 14.03 128.25 13.8787 128.247 13.6937ZM130.543 15.2794C130.291 14.6308 130.555 11.5206 130.87 11.4178C131.038 11.3631 131.589 11.9579 132.095 12.7395L133.015 14.1605L133.098 12.8847C133.157 11.9894 133.299 11.6089 133.575 11.6089C133.88 11.6089 133.968 12.0272 133.968 13.4761C133.968 14.5045 133.838 15.4227 133.679 15.52C133.292 15.7559 132.463 14.9851 132.054 14.0105C131.576 12.8702 131.246 13.0431 131.246 14.4335C131.246 15.5836 130.847 16.0633 130.543 15.2794ZM135.329 15.106C134.484 14.2709 134.587 12.6087 135.529 11.8764C137.586 10.2775 140.055 13.1502 138.2 14.9837C137.375 15.7989 136.086 15.8538 135.329 15.106ZM137.554 14.6608C138.112 14.1615 138.19 13.4431 137.77 12.6673C137.455 12.0857 136.428 11.9756 135.928 12.4698C135.466 12.9268 135.523 14.183 136.029 14.6833C136.574 15.2219 136.932 15.2166 137.554 14.6608ZM139.741 13.5856C139.79 12.292 139.926 11.5265 140.093 11.6089C140.243 11.683 140.384 11.9855 140.407 12.2815C140.429 12.5774 140.46 12.9405 140.475 13.0885C140.49 13.2364 140.862 12.942 141.301 12.4343C141.74 11.9265 142.291 11.4833 142.525 11.4493C143.107 11.3649 143.06 11.6974 142.407 12.2815C141.704 12.91 141.721 13.1607 142.543 14.3568C143.338 15.5136 143.365 15.644 142.806 15.644C142.576 15.644 142.136 15.2203 141.826 14.7025C141.053 13.4079 140.612 13.5003 140.389 15.0032C140.35 15.2656 140.17 15.529 139.989 15.5885C139.747 15.6682 139.682 15.1423 139.741 13.5856ZM7.13531 61.0803C3.62793 60.9581 0.580605 60.8231 0.363468 60.7803C0.043286 60.7171 -0.0241269 60.1177 0.00677471 57.6089C0.0277642 55.9074 0.121351 53.5166 0.214812 52.296L0.384733 50.0767H1.55312H2.72151L2.67263 53.641L2.62377 57.2054L4.04423 57.2864C5.74402 57.3833 5.72266 57.4295 5.82283 53.4393L5.89033 50.7492L7.04725 50.6665L8.20417 50.5838V53.9389V57.294L10.0416 57.3943C11.0522 57.4495 12.0016 57.4584 12.1513 57.414C12.3071 57.3679 12.4609 55.9257 12.5109 54.0413C12.5589 52.2307 12.6959 50.6502 12.8153 50.5291C12.9347 50.4081 13.5049 50.3475 14.0825 50.3946L15.1327 50.4802L15.0169 53.0358C14.9533 54.4413 14.895 56.8624 14.8873 58.4159C14.8734 61.2373 14.8727 61.2405 14.1929 61.2715C13.8186 61.2885 10.6427 61.2025 7.13531 61.0803ZM9.1569 44.936C5.86308 43.6326 2.77644 42.3848 2.29769 42.163L1.42724 41.7597L2.06469 40.2113C2.41529 39.3597 2.81869 38.6246 2.96113 38.5777C3.10355 38.5308 4.2459 38.9199 5.49969 39.4424C7.58116 40.3099 9.02079 40.6345 9.02079 40.2361C9.02079 40.1501 8.11057 38.5324 6.99808 36.6412L4.97536 33.2025L5.70504 31.2863C6.10636 30.2324 6.49931 29.3686 6.57823 29.3667C6.65715 29.3648 7.23983 30.362 7.87306 31.5826C10.7726 37.1717 10.6245 36.9625 11.5691 36.8033C12.039 36.7241 14.2303 36.1815 16.4387 35.5976C18.6471 35.0137 20.4539 34.5558 20.4539 34.5802C20.4539 35.0644 18.7391 38.3986 18.3911 38.5911C18.1252 38.7382 16.5175 39.1865 14.8185 39.5873C13.1195 39.9882 11.6439 40.4008 11.5393 40.5041C11.4347 40.6075 11.53 41.0051 11.7502 41.3877C12.0289 41.8711 12.8157 42.3473 14.329 42.9484C16.6695 43.8782 16.747 44.004 15.9353 45.5553C15.7256 45.956 15.554 46.4644 15.554 46.6849C15.554 46.9055 15.4621 47.1354 15.3498 47.1958C15.2375 47.2562 12.4507 46.2393 9.1569 44.936ZM17.7853 29.7428C15.9386 28.8334 13.8202 26.4918 13.3533 24.8437C12.5232 21.9137 13.2635 19.4804 15.7078 17.1048C17.4348 15.4264 18.7693 14.7708 20.7607 14.6223C23.5965 14.4109 26.8361 16.443 28.3934 19.4101C28.8729 20.3237 29.0264 21.0495 29.0194 22.3692C29.0077 24.5785 28.3302 26.0975 26.575 27.85C23.963 30.4578 20.6751 31.1659 17.7853 29.7428ZM24.339 26.5206C25.343 25.7923 25.7131 24.7555 25.5715 23.0683C25.4261 21.3357 24.6723 20.3095 22.44 18.8048C20.8561 17.7372 20.1699 17.6113 18.58 18.0964C16.3233 18.785 15.4669 21.6858 16.9164 23.7314C17.9936 25.2516 19.1786 26.4216 20.0456 26.8208C21.1575 27.333 23.4392 27.1734 24.339 26.5206ZM75.6458 18.9492C73.4374 17.9795 71.6306 17.0843 71.6306 16.9598C71.6306 16.8354 72.0116 15.9134 72.4772 14.911C72.9428 13.9086 74.2431 11.0306 75.3666 8.51537C76.4902 6.00017 77.4422 3.90613 77.4823 3.86194C77.6766 3.64767 78.9805 4.1777 78.9805 4.47094C78.9805 4.65563 77.8237 7.37432 76.41 10.5125C74.9962 13.6506 73.8954 16.3613 73.9637 16.5364C74.0321 16.7114 74.6682 17.089 75.3773 17.3756C76.0864 17.6621 77.5595 18.2968 78.6508 18.7859C80.4579 19.5957 80.6089 19.7233 80.3426 20.2151C80.1818 20.5121 79.9626 20.7455 79.8556 20.7337C79.7486 20.7219 77.8541 19.9188 75.6458 18.9492ZM33.3257 18.5266C32.8444 17.459 31.5276 14.5525 30.3994 12.0677C29.2712 9.58294 28.3482 7.45425 28.3482 7.33731C28.3482 6.89351 34.2072 4.51972 35.5909 4.40291C37.3733 4.25244 38.0662 4.63284 38.7363 6.12964C39.2733 7.32938 39.2733 7.32958 38.7106 8.47812C38.4012 9.10986 38.148 9.694 38.148 9.77618C38.148 9.85833 38.7388 10.003 39.461 10.0977C41.3251 10.3421 42.7756 11.9412 42.7756 13.7519C42.7756 16.0168 41.1442 17.6399 37.1536 19.3449C35.6793 19.9749 34.4118 20.4852 34.3369 20.479C34.262 20.4729 33.807 19.5942 33.3257 18.5266ZM38.1385 17.5156C40.1241 16.4947 40.2788 16.3506 40.6615 15.1656C41.1434 13.6737 40.902 12.6914 39.8535 11.8763C38.8926 11.1294 37.5138 11.2006 35.3331 12.1097C32.7522 13.1857 32.7412 13.2043 33.5971 15.0358C33.9954 15.8882 34.5023 17.0395 34.7235 17.5943C34.9616 18.1912 35.309 18.6031 35.5745 18.6031C35.8213 18.6031 36.9751 18.1137 38.1385 17.5156ZM34.7781 11.0986C36.6968 10.2016 37.3313 9.45937 37.3313 8.11187C37.3313 5.83847 35.8344 5.33976 32.6356 6.54745C30.3586 7.40712 30.2729 7.53598 30.8802 9.18789C31.495 10.8599 32.1619 11.8779 32.6426 11.8777C32.9007 11.8776 33.8617 11.527 34.7781 11.0986ZM66.1863 15.6244C64.6142 15.3568 62.6362 14.9958 61.7907 14.822C60.2588 14.5073 60.2542 14.5034 60.484 13.7119C60.6107 13.275 60.9685 11.3824 61.2789 9.50597C61.5894 7.62956 62.1006 4.7231 62.415 3.04716L62.9867 0L63.7012 0.177213C64.0942 0.274716 64.449 0.387317 64.4897 0.427508C64.5515 0.488612 63.5024 6.99743 62.6236 12.0056C62.4944 12.7417 62.4776 13.418 62.5861 13.5086C62.6947 13.5992 63.8247 13.8268 65.0974 14.0144C68.7326 14.5503 69.7789 14.8483 69.6042 15.2982C69.5209 15.5126 69.4528 15.7992 69.4528 15.935C69.4528 16.0709 69.3609 16.166 69.2487 16.1465C69.1364 16.127 67.7583 15.892 66.1863 15.6244ZM45.0631 15.4423C45.3528 14.5102 47.1585 7.00566 48.1374 2.6645C48.5704 0.744631 48.6622 0.578134 49.2985 0.559721C49.6785 0.54874 50.2528 0.490788 50.5747 0.431016C51.0373 0.345103 51.2495 0.532484 51.5873 1.32527C51.9668 2.21616 53.4624 5.07707 57.1608 11.9867C57.7867 13.1561 58.2657 14.1456 58.2253 14.1855C58.1849 14.2255 57.794 14.2976 57.3568 14.3458C56.6234 14.4267 56.4822 14.2874 55.5374 12.5505C54.3804 10.4235 54.3947 10.4287 50.9729 10.8702C49.9828 10.998 48.8875 11.1105 48.5389 11.1203C47.8069 11.141 47.5842 11.5836 47.1207 13.9397C46.8615 15.2571 46.6751 15.6296 46.2142 15.7518C45.2065 16.019 44.9086 15.9389 45.0631 15.4423ZM52.3829 9.57746C54.2718 9.38322 54.2815 9.52429 52.1075 5.56719C50.2178 2.12752 49.9691 1.85765 49.5922 2.83718C49.4364 3.24232 49.3088 3.69241 49.3088 3.83738C49.3088 3.98235 49.0038 5.31945 48.6309 6.80873C48.258 8.298 48.0221 9.62712 48.1067 9.76232C48.1912 9.89752 48.8332 9.94773 49.5332 9.87388C50.2333 9.80007 51.5156 9.66666 52.3829 9.57746Z" fill="#0A2640"/>
</svg>
