<svg width="40" height="42" viewBox="0 0 40 42" fill="none" xmlns="http://www.w3.org/2000/svg">
<g clip-path="url(#clip0_4_12)">
<path d="M20.4082 17.1819V25.3147H31.3915C30.9092 27.9301 29.4619 30.1448 27.2912 31.6339L33.9146 36.9221C37.7736 33.2568 40 27.873 40 21.4776C40 19.9885 39.8702 18.5565 39.6289 17.1821L20.4082 17.1819Z" fill="#0A2640"/>
<path d="M8.97081 24.9971L7.47699 26.1737L2.1893 30.4119C5.54738 37.2655 12.43 42.0001 20.4077 42.0001C25.9178 42.0001 30.5375 40.1292 33.9142 36.922L27.2908 31.6337C25.4726 32.8937 23.1535 33.6574 20.4077 33.6574C15.1016 33.6574 10.5934 29.9729 8.97915 25.0092L8.97081 24.9971Z" fill="#0A2640"/>
<path d="M2.18932 11.5881C0.797924 14.4135 0.000228882 17.6017 0.000228882 20.9999C0.000228882 24.398 0.797924 27.5863 2.18932 30.4116C2.18932 30.4306 8.97983 24.9898 8.97983 24.9898C8.57166 23.7298 8.33041 22.3935 8.33041 20.9997C8.33041 19.6058 8.57166 18.2695 8.97983 17.0095L2.18932 11.5881Z" fill="#0A2640"/>
<path d="M20.4082 8.36186C23.4138 8.36186 26.0854 9.43093 28.219 11.4928L34.0631 5.47919C30.5195 2.08105 25.9185 0 20.4082 0C12.4304 0 5.54738 4.71547 2.1893 11.5883L8.9796 17.0101C10.5936 12.0464 15.102 8.36186 20.4082 8.36186Z" fill="#0A2640"/>
</g>
<defs>
<clipPath id="clip0_4_12">
<rect width="40" height="42" fill="white"/>
</clipPath>
</defs>
</svg>
