<svg width="221" height="75" viewBox="0 0 221 75" fill="none" xmlns="http://www.w3.org/2000/svg">
<path d="M34.6409 74.8617C23.4614 74.0067 13.1641 68.0945 6.6574 58.7948C-0.411571 48.6914 -1.97555 35.3469 2.5636 23.8648C8.43093 9.02304 22.9083 -0.496438 38.7904 0.0442554C48.45 0.373108 57.3259 4.22518 64.1423 11.0468C69.9366 16.8456 73.4831 23.8881 74.7935 32.1976C75.0894 34.0739 75.1261 40.5386 74.8512 42.3552C74.1773 46.8081 73.0271 50.5289 71.1989 54.1707C64.3169 67.8793 49.9159 76.0299 34.6409 74.8617ZM42.0554 73.2684C48.2646 72.4837 54.1193 70.1327 59.0845 66.4301C67.2505 60.3407 72.3308 51.5418 73.5013 41.4608C73.761 39.2237 73.6893 34.3782 73.3661 32.3254C72.0812 24.1651 68.4327 17.1111 62.6058 11.5212C53.5454 2.82942 40.7988 -0.531853 28.599 2.55364C23.7909 3.7697 19.1244 6.08104 15.1299 9.22503C13.4274 10.5651 10.24 13.7771 9.00622 15.3961C5.09646 20.5266 2.6968 26.1323 1.78663 32.2615C1.14886 36.5564 1.36998 41.544 2.38709 45.805C4.5246 54.7597 10.0857 62.6332 17.849 67.6962C23.1452 71.1502 28.8519 73.0098 35.7175 73.5189C36.8678 73.6042 40.55 73.4586 42.0554 73.2684ZM34.4692 69.2941C34.2051 69.1848 33.989 69.0287 33.989 68.9472C33.989 68.7741 48.127 32.7402 48.2386 32.6288C48.3443 32.5233 49.4816 32.9728 49.4816 33.1201C49.4816 33.1868 46.3057 41.329 42.4241 51.214C38.5425 61.0989 35.3386 69.2584 35.3043 69.3463C35.2248 69.5501 35.0634 69.54 34.4692 69.2941ZM26.6968 56.0943C26.3831 55.971 26.1079 55.8145 26.0852 55.7465C26.0625 55.6785 27.0825 52.9781 28.3519 49.7457L30.66 43.8686L27.5424 36.7235C25.8277 32.7937 24.2748 29.2838 24.0914 28.9238C23.4821 27.7272 22.391 27.0055 20.8258 26.7638C20.3219 26.686 20.2777 26.6494 20.3137 26.3398L20.353 26.0009L26.0827 25.9676L31.8124 25.9343V26.3131C31.8124 26.6518 31.7614 26.7003 31.3322 26.7703C30.283 26.9413 30.0659 26.9994 29.6063 27.2315C29.3437 27.3641 29.0412 27.6417 28.9341 27.8484C28.49 28.7055 28.7434 29.6499 30.5247 33.775C32.5985 38.5776 32.6119 38.6063 32.7168 38.4964C32.7704 38.4403 34.4949 34.111 36.549 28.8758C38.6031 23.6407 40.3003 19.3408 40.3205 19.3207C40.3968 19.2445 41.6063 19.7886 41.5856 19.8897C41.5736 19.948 39.7444 24.6241 37.5205 30.2811L33.4771 40.5664L35.1094 44.3644C36.0073 46.4532 36.7706 48.1627 36.8058 48.163C36.8887 48.164 43.6292 31.652 44.0298 30.4669C44.5487 28.9318 44.5209 28.278 43.911 27.6694C43.4939 27.2531 43.0002 27.0474 41.7673 26.7762C41.4793 26.7128 41.4152 26.6294 41.4152 26.3178V25.937H45.7685H50.1218V26.3112C50.1218 26.6526 50.0629 26.7026 49.4496 26.881C47.8294 27.3524 46.8378 28.4974 45.7303 31.1755C45.396 31.9836 43.0901 37.5894 40.6058 43.6329C36.0945 54.6076 36.0886 54.621 35.7207 54.621C35.3055 54.621 35.5551 55.1164 32.9002 49.0241C32.1406 47.281 31.4746 45.9011 31.4202 45.9576C31.3659 46.0142 30.42 48.359 29.3183 51.1684C28.2166 53.9778 27.3043 56.2859 27.2911 56.2975C27.2778 56.3091 27.0104 56.2177 26.6968 56.0943ZM23.6179 15.8484C23.6179 15.7945 23.6763 15.4434 23.7476 15.0682L23.8772 14.386L23.2862 13.7872L22.6951 13.1883L23.4846 13.0969L24.2742 13.0054L24.6129 12.3162C24.7992 11.9371 24.9853 11.6269 25.0264 11.6269C25.0674 11.6269 25.2535 11.9371 25.4398 12.3162L25.7786 13.0054L26.5681 13.0969L27.3576 13.1883L26.7773 13.7811L26.197 14.3739L26.3241 15.0579C26.394 15.434 26.4244 15.7685 26.3917 15.8011C26.359 15.8338 26.0352 15.7103 25.6722 15.5267L25.0121 15.1929L24.315 15.5697C23.9316 15.7769 23.6179 15.9024 23.6179 15.8484ZM38.252 15.5588L37.5855 15.1943L36.9269 15.5274C36.5646 15.7106 36.2415 15.8338 36.2088 15.8011C36.1761 15.7685 36.2063 15.434 36.2764 15.0579L36.4035 14.3739L35.8231 13.7811L35.2428 13.1883L36.0323 13.0969L36.8219 13.0054L37.1606 12.3162C37.3469 11.9371 37.533 11.6269 37.5741 11.6269C37.6152 11.6269 37.8012 11.9371 37.9875 12.3162L38.3263 13.0054L39.1158 13.0969L39.9054 13.1883L39.3152 13.7862L38.7252 14.384L38.8626 15.1262C38.9382 15.5343 38.9818 15.8806 38.9593 15.8957C38.9369 15.9108 38.6186 15.7592 38.252 15.5588ZM50.8035 15.5665L50.1408 15.1905L49.4784 15.5255C49.1141 15.7097 48.7878 15.8323 48.7533 15.7979C48.7189 15.7635 48.7436 15.4291 48.8083 15.0547L48.926 14.3739L48.3527 13.7755L47.7795 13.1771L48.5766 13.0871L49.3737 12.9971L49.7104 12.312C49.8956 11.9352 50.0783 11.6295 50.1165 11.6327C50.1546 11.6361 50.3299 11.9378 50.5059 12.3035L50.826 12.9685L51.6347 13.0833L52.4434 13.1981L51.8465 13.8028L51.2497 14.4075L51.4011 15.1355C51.4844 15.5359 51.5332 15.8813 51.5094 15.903C51.4856 15.9247 51.168 15.7733 50.8035 15.5665ZM87.765 37.5V0H88.3411H88.9173V37.5V75H88.3411H87.765V37.5ZM109.153 54.3734C108.22 52.3751 107.361 50.6532 107.243 50.5471C107.126 50.441 106.887 50.2973 106.712 50.2278C106.481 50.1357 106.898 50.1014 108.251 50.1014C109.497 50.1014 110.012 50.1397 109.817 50.218C109.657 50.2821 109.497 50.4105 109.461 50.5032C109.403 50.6526 111.31 55.5149 111.39 55.4239C111.5 55.299 113.373 50.7957 113.373 50.6556C113.373 50.5606 113.245 50.3935 113.088 50.2841C112.822 50.0982 112.883 50.0855 114.016 50.0902C115.128 50.095 115.197 50.1092 114.845 50.2623C114.634 50.3542 114.395 50.51 114.314 50.6086C114.1 50.8693 111.068 57.6111 111.068 57.8257C111.068 58.3492 110.7 57.6856 109.153 54.3734ZM127.457 55.353L124.704 52.7131L124.669 54.9952C124.631 57.4519 124.681 57.6649 125.325 57.7906C125.477 57.8201 124.822 57.8442 123.872 57.8442C122.921 57.8442 122.274 57.8191 122.434 57.7885C123.091 57.6626 123.128 57.422 123.082 53.5488L123.039 49.9726L123.355 50.2525C123.529 50.4064 124.758 51.5673 126.085 52.8322C127.413 54.0971 128.539 55.1465 128.586 55.1641C128.634 55.1818 128.656 54.1287 128.636 52.8239L128.598 50.4515L128.187 50.2733C127.811 50.1099 127.919 50.0957 129.505 50.1017C130.796 50.1066 131.129 50.1385 130.819 50.2277C130.554 50.3042 130.379 50.4497 130.333 50.6318C130.294 50.7884 130.279 52.5119 130.3 54.4618C130.32 56.4117 130.309 58.0038 130.274 58C130.238 57.9961 128.971 56.805 127.457 55.353ZM140.357 57.81C139.495 57.5349 139.302 57.1964 139.491 56.2907C139.674 55.4102 139.822 55.3002 139.913 55.9777C140.04 56.9163 140.833 57.4957 141.993 57.4957C142.618 57.4957 142.762 57.4466 143.087 57.1223C143.477 56.7329 143.565 56.2673 143.331 55.8308C143.26 55.6974 142.514 55.123 141.673 54.5545C139.956 53.3932 139.62 52.9881 139.62 52.0761C139.62 51.3706 139.849 50.8772 140.385 50.4276C140.874 50.017 141.616 49.9015 143.016 50.0179L144.102 50.1081L144.093 50.6397C144.088 50.932 144.034 51.2862 143.974 51.4268C143.867 51.6745 143.863 51.6738 143.855 51.4062C143.85 51.2543 143.668 50.9812 143.452 50.7993C142.737 50.1991 141.138 50.4386 140.953 51.1735C140.786 51.836 140.973 52.0523 142.7 53.2004C144.012 54.0728 144.416 54.4099 144.559 54.7514C145.002 55.8086 144.614 57.0046 143.645 57.5713C143.14 57.8665 142.861 57.9335 142.001 57.9654C141.328 57.9905 140.752 57.936 140.357 57.81ZM151.049 57.873C149.15 57.5354 148.08 56.3298 148.453 54.9478C148.593 54.4303 149.469 53.5349 149.836 53.5349C149.961 53.5349 149.989 53.4641 149.924 53.3113C149.41 52.1032 149.391 51.8813 149.735 51.1712C150.237 50.1376 151.96 49.6557 153.422 50.1401C154.342 50.4451 154.413 50.5667 154.216 51.4924C154.043 52.3072 153.833 52.513 153.833 51.8676C153.833 51.3859 153.528 50.7753 153.199 50.6C153.064 50.5277 152.727 50.4685 152.45 50.4685C151.356 50.4685 150.928 51.5854 151.59 52.7122C151.857 53.1679 154.558 55.707 154.775 55.707C154.813 55.707 154.884 55.5002 154.932 55.2475C155.061 54.5612 154.793 53.8256 154.306 53.5293L153.897 53.2803L155.241 53.288C156.129 53.293 156.492 53.3331 156.311 53.406C156.08 53.499 156.022 53.6632 155.943 54.449C155.892 54.9619 155.768 55.6112 155.669 55.8918C155.462 56.4779 155.446 56.4581 156.829 57.3768L157.585 57.879H156.557C155.963 57.879 155.296 57.7968 154.975 57.6839C154.479 57.5092 154.37 57.5091 153.934 57.683C153.308 57.933 151.906 58.0254 151.049 57.873ZM153.429 57.3555C153.651 57.2783 153.833 57.1748 153.833 57.1254C153.833 57.076 153.416 56.694 152.908 56.2765C152.399 55.859 151.622 55.1805 151.181 54.7687L150.379 54.02L150.249 54.3608C149.8 55.5397 150.533 57.0011 151.757 57.3694C152.264 57.5217 152.968 57.5159 153.429 57.3555ZM170.956 57.8758C169.73 57.5673 168.836 56.832 168.319 55.7077C168.058 55.1416 167.995 54.8046 167.995 53.9821C167.995 52.2643 168.744 51.0427 170.221 50.3513C170.846 50.0587 171.085 50.0214 172.334 50.0227C173.982 50.0241 174.665 50.2593 175.56 51.1327C176.339 51.8936 176.66 52.7261 176.66 53.9821C176.66 55.7002 175.858 56.9882 174.384 57.6368C173.662 57.9547 171.788 58.0854 170.956 57.8758ZM173.714 57.0789C173.962 56.8903 174.3 56.4614 174.466 56.1257C174.731 55.5876 174.767 55.3337 174.767 53.9821C174.767 52.6305 174.731 52.3766 174.466 51.8385C174.013 50.9213 173.445 50.5489 172.412 50.4923C171.637 50.4499 171.521 50.4783 171.039 50.829C170.265 51.3912 169.926 52.1827 169.859 53.5823C169.767 55.5009 170.247 56.7694 171.261 57.2843C171.926 57.6219 173.134 57.5207 173.714 57.0789ZM180.165 57.879C180.122 57.7736 179.505 56.1074 178.794 54.1764C178.084 52.2453 177.441 50.5921 177.367 50.5025C177.292 50.413 177.051 50.2876 176.831 50.224C176.545 50.141 176.939 50.1073 178.224 50.1048C179.358 50.1029 179.915 50.1421 179.741 50.2121C179.59 50.273 179.426 50.3881 179.376 50.468C179.296 50.5985 180.516 54.3585 180.713 54.5875C180.758 54.6394 181.224 53.6444 181.75 52.3766C182.275 51.1087 182.751 50.0601 182.807 50.0463C182.863 50.0325 183.382 51.069 183.959 52.3496C184.537 53.6302 185.04 54.6795 185.077 54.6814C185.115 54.6833 185.4 53.7573 185.711 52.6237L186.276 50.5625L185.981 50.3239C185.688 50.087 185.695 50.0853 186.884 50.0982C187.92 50.1095 188.025 50.1297 187.659 50.2466C187.422 50.3224 187.161 50.5273 187.065 50.7127C186.77 51.2836 184.946 57.2427 184.946 57.6341C184.946 57.8391 184.903 58.0067 184.85 58.0066C184.797 58.0065 184.439 57.3021 184.054 56.4414C183.67 55.5807 183.132 54.3899 182.859 53.7952L182.362 52.7139L181.433 54.8812C180.922 56.0732 180.445 57.2785 180.374 57.5596C180.291 57.8884 180.216 58.0023 180.165 57.879ZM204.408 55.3717L201.655 52.7483L201.62 55.0128C201.582 57.4504 201.633 57.665 202.276 57.7906C202.427 57.8201 201.773 57.8498 200.823 57.8566C199.237 57.868 199.128 57.8542 199.506 57.6904C199.762 57.5794 199.948 57.3884 199.999 57.1854C200.045 57.0058 200.061 55.3133 200.036 53.4242L199.99 49.9895L200.978 50.8998C201.521 51.4004 202.774 52.5785 203.763 53.5176L205.56 55.2252L205.558 52.9427C205.557 51.6873 205.509 50.5858 205.451 50.495C205.393 50.4042 205.178 50.2798 204.973 50.2185C204.716 50.1418 205.137 50.1053 206.328 50.1012C207.932 50.0956 208.027 50.1083 207.637 50.2772L207.217 50.4593L207.253 54.2331C207.272 56.3087 207.26 58.0043 207.224 58.0011C207.189 57.9977 205.922 56.8146 204.408 55.3717ZM211.514 57.8363C210.674 57.5577 210.249 57.2907 209.7 56.6969C208.968 55.9046 208.716 55.0725 208.787 53.6805C208.873 51.9933 209.498 51.0248 210.937 50.3513C211.57 50.0547 211.791 50.0219 213.114 50.0277C214.236 50.0325 214.755 50.0935 215.291 50.2832L215.995 50.5324L216.025 51.4906L216.055 52.4489L215.786 51.9378C215.224 50.8722 214.564 50.4685 213.384 50.4685C212.449 50.4685 212.023 50.6188 211.481 51.1405C210.869 51.7301 210.553 52.6898 210.553 53.9637C210.553 55.6828 211.038 56.8276 211.971 57.3087C212.503 57.5836 213.728 57.5499 214.226 57.2466C214.819 56.8857 214.922 56.6007 214.88 55.4237C214.845 54.429 214.827 54.3718 214.523 54.2877C214.347 54.2391 214.894 54.2002 215.739 54.2013C216.584 54.2023 217.16 54.2321 217.019 54.2673C216.629 54.3645 216.575 54.5341 216.573 55.6663C216.571 56.6771 216.559 56.7206 216.194 56.9801C215.289 57.623 214.394 57.9153 213.189 57.9615C212.448 57.9899 211.84 57.9445 211.514 57.8363ZM100.441 57.7897C101.081 57.5504 101.081 57.5501 101.081 53.9821C101.081 50.9546 101.06 50.6173 100.857 50.4411C100.734 50.3339 100.546 50.2146 100.441 50.1758C100.335 50.137 101.322 50.1008 102.633 50.0952C103.945 50.0897 105.198 50.0492 105.418 50.0053L105.818 49.9254L105.805 50.9316C105.795 51.748 105.772 51.854 105.687 51.4937C105.514 50.7577 105.189 50.5962 103.884 50.5962H102.745V52.1933V53.7904H103.686C104.691 53.7904 104.899 53.6822 105.163 53.0212C105.259 52.782 105.29 53.033 105.29 54.046C105.29 55.059 105.259 55.31 105.163 55.0708C104.899 54.4097 104.691 54.3015 103.686 54.3015H102.745V55.8347V57.3679H103.776C105.172 57.3679 105.798 57.0128 106.255 55.9616C106.51 55.3746 106.5 55.6778 106.225 56.8569L106.001 57.8151L103.125 57.8383C101.543 57.8511 100.335 57.8292 100.441 57.7897ZM115.485 57.7883C115.626 57.7534 115.842 57.6355 115.965 57.5265C116.168 57.3472 116.189 57.0082 116.189 53.982C116.189 50.9544 116.168 50.6172 115.965 50.4409C115.842 50.3338 115.655 50.2144 115.549 50.1757C115.444 50.1369 116.43 50.1007 117.742 50.0951C119.053 50.0896 120.307 50.0491 120.527 50.0052L120.927 49.9253L120.914 50.9315C120.903 51.7479 120.881 51.8539 120.796 51.4935C120.622 50.7576 120.298 50.5961 118.992 50.5961H117.854V52.1932V53.7903H118.695C119.687 53.7903 119.99 53.6561 120.228 53.1095C120.393 52.732 120.404 52.7962 120.402 54.0459C120.399 55.0612 120.368 55.3104 120.272 55.0706C120.007 54.4096 119.8 54.3014 118.794 54.3014H117.854V55.8346V57.3678H118.806C120.244 57.3678 120.855 57.0424 121.325 56.0262C121.621 55.3857 121.621 55.6292 121.325 56.8567L121.094 57.815L118.161 57.8334C116.549 57.8435 115.344 57.8232 115.485 57.7883ZM133.808 57.6962C134.033 57.5985 134.241 57.3927 134.286 57.2221C134.331 57.0563 134.368 55.4976 134.369 53.7584L134.371 50.5961H133.371C132.239 50.5961 131.967 50.7262 131.729 51.3804C131.58 51.7921 131.573 51.7729 131.564 50.9155L131.554 50.0211H135.139H138.724L138.715 50.9155C138.705 51.7729 138.698 51.7921 138.549 51.3804C138.315 50.7355 138.035 50.5961 136.971 50.5961H136.036L136.037 53.95C136.039 55.7947 136.083 57.3729 136.137 57.4573C136.191 57.5416 136.377 57.6673 136.551 57.7367C136.783 57.8291 136.407 57.8635 135.139 57.8658C133.578 57.8687 133.449 57.8522 133.808 57.6962ZM160.427 57.7934C160.567 57.7557 160.783 57.6355 160.907 57.5265C161.109 57.3472 161.131 57.0082 161.131 53.982C161.131 50.9558 161.109 50.6168 160.907 50.4375C160.783 50.3284 160.567 50.2081 160.427 50.1702C160.286 50.1322 161.179 50.1121 162.411 50.1254C164.477 50.1477 164.7 50.173 165.263 50.4498C165.619 50.6242 165.954 50.9025 166.064 51.1139C166.5 51.9551 166.126 53.3054 165.408 53.4853C165.08 53.5674 165.091 53.5816 165.699 53.8702C166.472 54.2368 166.892 54.8942 166.892 55.7373C166.892 56.5032 166.485 57.0916 165.676 57.4956C165.067 57.7995 164.918 57.8161 162.603 57.8385C161.265 57.8514 160.286 57.8311 160.427 57.7934ZM164.142 57.1663C164.731 56.8877 165.017 56.2457 164.944 55.367C164.871 54.4982 164.407 53.9535 163.633 53.8301L163.116 53.7475L163.5 53.6245C164.056 53.4463 164.315 53.1762 164.465 52.6201C164.742 51.5928 164.132 50.5961 163.226 50.5961H162.795V53.982V57.3678H163.256C163.509 57.3678 163.908 57.2771 164.142 57.1663ZM188.48 57.6965C188.698 57.6016 188.914 57.4267 188.96 57.3077C189.006 57.1887 189.043 55.6921 189.043 53.982C189.043 52.2718 189.006 50.7752 188.96 50.6562C188.914 50.5373 188.698 50.3623 188.48 50.2675C188.122 50.1119 188.252 50.0955 189.811 50.1001C190.762 50.103 191.453 50.1369 191.348 50.1757C191.242 50.2144 191.055 50.3338 190.932 50.4409C190.729 50.6173 190.708 50.956 190.708 54.0145V57.3933L191.838 57.3486C192.826 57.3096 193.025 57.2611 193.413 56.9652C193.658 56.7789 193.965 56.3902 194.095 56.1015C194.415 55.3942 194.474 55.52 194.249 56.4274C194.147 56.8392 194.027 57.3343 193.983 57.5275L193.904 57.8789L190.993 57.8739C188.437 57.8695 188.131 57.8479 188.48 57.6965ZM195.266 57.6965C195.484 57.6016 195.7 57.4267 195.746 57.3077C195.792 57.1887 195.829 55.6921 195.829 53.982C195.829 52.2718 195.792 50.7752 195.746 50.6562C195.7 50.5373 195.484 50.3623 195.266 50.2675C194.907 50.1118 195.037 50.0953 196.597 50.0981C197.865 50.1005 198.241 50.1348 198.009 50.2273C197.835 50.2966 197.649 50.4223 197.595 50.5066C197.541 50.591 197.497 52.1603 197.495 53.9941C197.494 57.0115 197.515 57.3467 197.718 57.523C197.841 57.6301 198.028 57.7495 198.134 57.7883C198.239 57.827 197.548 57.861 196.597 57.8638C195.038 57.8686 194.908 57.852 195.266 57.6965ZM102.319 44.8467C102.275 44.7413 101.224 41.8952 99.9821 38.5222C98.372 34.1478 97.6289 32.2873 97.3902 32.0336C97.2062 31.838 96.7945 31.5976 96.4755 31.4995C95.9417 31.3353 96.1357 31.3209 98.9043 31.3194C101.397 31.3179 101.837 31.3438 101.468 31.4702C100.623 31.7593 100.643 31.9231 101.977 35.7045C102.636 37.5704 103.207 39.0958 103.248 39.0943C103.288 39.0928 104.079 37.2672 105.004 35.0376C105.93 32.808 106.734 30.9925 106.793 31.0032C106.851 31.0139 107.733 32.8661 108.753 35.1193C109.773 37.3726 110.634 39.189 110.668 39.1559C110.832 38.9923 112.604 32.4653 112.574 32.1338C112.548 31.8395 112.436 31.6985 112.092 31.527C111.647 31.3053 111.659 31.3037 113.693 31.3124C115.644 31.3207 115.714 31.3295 115.161 31.4995C114.094 31.8277 114.072 31.8759 112.216 37.8194C111.284 40.806 110.45 43.6521 110.363 44.144L110.205 45.0384L109.949 44.4634C109.163 42.7001 106.042 35.8332 106.012 35.8012C105.954 35.7382 102.911 42.955 102.764 43.5051C102.689 43.7862 102.576 44.2462 102.513 44.5273C102.44 44.8502 102.368 44.9678 102.319 44.8467ZM152.597 44.7068C151.585 44.5382 150.539 44.1012 150.236 43.7206C149.998 43.4213 149.971 43.2629 150.029 42.483C150.133 41.0839 150.758 39.8017 150.761 40.9817C150.762 41.5792 151.249 42.6276 151.736 43.083C153.363 44.6047 156.425 44.1987 156.911 42.397C157.212 41.2825 156.776 40.7864 153.701 38.7463C150.812 36.8296 150.331 36.2404 150.336 34.622C150.34 33.1805 150.976 32.1172 152.232 31.4511C152.868 31.1137 152.888 31.1117 155.414 31.1351C156.812 31.1479 157.983 31.1857 158.016 31.2189C158.107 31.3094 157.908 33.9864 157.811 33.9864C157.765 33.9864 157.66 33.7357 157.578 33.4293C157.395 32.7477 156.746 32.1399 155.98 31.9343C155.277 31.7453 154.154 31.8326 153.547 32.1235C152.61 32.5725 152.245 33.8183 152.833 34.5638C152.988 34.7598 154.201 35.6306 155.529 36.4989C158.069 38.1591 158.43 38.4608 158.865 39.2888C159.245 40.0116 159.233 41.4734 158.841 42.3552C157.988 44.2734 155.536 45.1969 152.597 44.7068ZM184.014 40.9297C181.745 38.7754 179.586 36.7219 179.216 36.3664L178.544 35.72V39.7142V43.7084L178.858 44.022C179.052 44.215 179.32 44.3356 179.555 44.3356C179.765 44.3356 179.973 44.3931 180.016 44.4634C180.069 44.5479 178.076 44.5911 174.134 44.5911C170.245 44.5911 168.173 44.5467 168.173 44.4634C168.173 44.3931 168.308 44.3356 168.473 44.3356C168.828 44.3356 169.199 43.9688 169.193 43.6228C169.191 43.4878 168.973 42.8312 168.709 42.1636L168.229 40.9498H165.94H163.651L163.165 42.0997C162.898 42.7321 162.677 43.4036 162.673 43.5918C162.666 43.991 162.964 44.3356 163.317 44.3356C163.452 44.3356 163.563 44.3931 163.563 44.4634C163.563 44.5431 162.817 44.5911 161.579 44.5911C160.341 44.5911 159.594 44.5431 159.594 44.4634C159.594 44.3931 159.712 44.3356 159.857 44.3356C160.253 44.3356 160.825 43.9987 161.1 43.6029C161.382 43.1977 166.443 31.7974 166.576 31.2688C166.625 31.077 166.703 30.9199 166.751 30.9199C166.799 30.9199 167.841 33.1192 169.066 35.8071C172.679 43.7301 172.704 43.7807 173.188 44.0751C173.663 44.3642 174.795 44.432 175.234 44.1976C175.815 43.8872 175.855 43.5056 175.852 38.3027C175.85 35.6125 175.795 32.8667 175.731 32.201C175.666 31.5353 175.631 30.9732 175.652 30.9519C175.674 30.9307 177.735 32.8553 180.232 35.2288C182.73 37.6023 184.899 39.6538 185.052 39.7877L185.33 40.0311V36.1215C185.33 32.2228 185.328 32.2109 185.035 31.8692C184.857 31.6632 184.538 31.4879 184.234 31.4296C183.945 31.374 185.011 31.3326 186.738 31.3326C188.393 31.3326 189.53 31.3746 189.264 31.426C188.999 31.4774 188.636 31.6561 188.458 31.8231L188.134 32.1266L188.172 38.4867C188.193 41.9848 188.195 44.8468 188.176 44.8467C188.156 44.8467 186.284 43.0841 184.014 40.9297ZM167.734 39.7679C167.274 38.5164 166.045 35.5217 165.991 35.5208C165.939 35.5198 164.623 38.538 164.111 39.8318C164.063 39.9552 164.477 39.9915 165.932 39.9915C167.672 39.9915 167.81 39.9745 167.734 39.7679ZM196.917 44.7554C193.888 44.3373 191.652 42.4742 191.033 39.8518C190.784 38.7986 190.782 36.9286 191.029 35.9835C191.854 32.8233 194.459 31.0437 198.25 31.0499C200.674 31.0538 202.363 31.6229 203.746 32.9013C205.098 34.1502 205.739 35.7709 205.742 37.9472C205.747 41.5948 203.709 44.0023 200.055 44.6639C199.14 44.8295 197.748 44.87 196.917 44.7554ZM199.859 43.7116C200.956 43.227 201.705 42.3175 202.245 40.8118C202.624 39.7555 202.728 36.9781 202.436 35.7353C201.868 33.324 200.557 31.9811 198.636 31.8435C196.398 31.6832 194.797 33.04 194.148 35.6474C193.885 36.7031 193.922 39.4789 194.212 40.4332C194.83 42.4682 195.905 43.6257 197.494 43.9679C198.13 44.105 199.24 43.9848 199.859 43.7116ZM115.933 44.4634C115.933 44.3931 116.109 44.3356 116.323 44.3356C116.567 44.3356 116.831 44.2177 117.028 44.022L117.342 43.7084V37.9602V32.2119L117.054 31.8911C116.895 31.7147 116.564 31.5155 116.317 31.4484C115.998 31.3614 116.715 31.3263 118.814 31.3263C120.913 31.3263 121.63 31.3614 121.311 31.4484C121.064 31.5155 120.733 31.7147 120.575 31.8911L120.287 32.2119V37.8807V43.5494L120.618 43.9425C120.848 44.2157 121.063 44.3356 121.322 44.3356C121.527 44.3356 121.695 44.3931 121.695 44.4634C121.695 44.5448 120.649 44.5911 118.814 44.5911C116.979 44.5911 115.933 44.5448 115.933 44.4634ZM123.296 44.4634C123.339 44.3931 123.512 44.3356 123.68 44.3356C123.848 44.3356 124.147 44.1969 124.345 44.0273L124.704 43.7191L124.74 38.1222C124.766 34.0712 124.735 32.4257 124.626 32.1649C124.466 31.7782 124.164 31.5693 123.552 31.4219C123.34 31.371 124.521 31.3294 126.176 31.3294C127.831 31.3294 129.012 31.371 128.801 31.4219C128.189 31.5693 127.887 31.7782 127.726 32.1649C127.618 32.4257 127.587 34.0712 127.613 38.1222L127.649 43.7191L128.008 44.0273C128.206 44.1969 128.505 44.3356 128.673 44.3356C128.841 44.3356 129.014 44.3931 129.057 44.4634C129.109 44.5471 128.117 44.5911 126.176 44.5911C124.236 44.5911 123.244 44.5472 123.296 44.4634ZM134.307 44.4544C133.955 44.3957 133.295 44.1581 132.84 43.9264C132.037 43.5177 131.956 43.4276 130.113 40.9066L128.214 38.308L130.524 35.2609C131.795 33.5849 132.834 32.1022 132.834 31.9658C132.834 31.6856 132.635 31.4881 132.258 31.3957C132.117 31.3612 133.01 31.3321 134.243 31.3312C135.618 31.3302 136.318 31.3685 136.054 31.4307C134.957 31.6894 134.665 31.9369 132.643 34.3267C131.551 35.6175 130.658 36.707 130.658 36.7478C130.658 36.8824 135.17 42.9832 135.64 43.4837C136.153 44.0304 136.659 44.3356 137.053 44.3356C137.198 44.3356 137.316 44.3931 137.316 44.4634C137.316 44.6163 135.241 44.6101 134.307 44.4544ZM137.7 44.4634C137.7 44.3931 137.875 44.3356 138.09 44.3356C138.582 44.3356 139.064 43.8715 139.171 43.2958C139.214 43.0596 139.232 40.4671 139.211 37.5347L139.172 32.2032L138.836 31.8682C138.652 31.6839 138.306 31.4873 138.068 31.4313C137.81 31.3705 138.823 31.3264 140.581 31.3219C143.273 31.3151 143.482 31.33 143.013 31.4957C142.005 31.8527 142.053 31.5292 142.053 37.8877V43.5494L142.385 43.9425C142.615 44.2157 142.83 44.3356 143.089 44.3356C143.294 44.3356 143.462 44.3931 143.462 44.4634C143.462 44.5448 142.416 44.5911 140.581 44.5911C138.745 44.5911 137.7 44.5448 137.7 44.4634ZM206.968 44.4634C206.968 44.3931 207.128 44.3356 207.324 44.3356C207.781 44.3356 208.174 44.058 208.363 43.6018C208.471 43.3408 208.503 41.7165 208.477 37.7222L208.441 32.2032L208.105 31.8682C207.92 31.6839 207.575 31.4873 207.337 31.4313C207.079 31.3705 208.092 31.3264 209.849 31.3219C212.542 31.3151 212.75 31.33 212.282 31.4957C211.273 31.8528 211.322 31.5268 211.322 37.9073V43.5887L211.696 43.9621C211.916 44.1817 212.206 44.3356 212.4 44.3356C212.582 44.3356 212.73 44.3931 212.73 44.4634C212.73 44.5448 211.684 44.5911 209.849 44.5911C208.014 44.5911 206.968 44.5448 206.968 44.4634ZM218.058 44.4564C216.391 44.1777 215.907 43.769 213.766 40.8296C212.603 39.2321 211.982 38.2732 212.045 38.171C212.1 38.0831 213.064 36.8037 214.187 35.328C215.311 33.8523 216.321 32.4878 216.433 32.2959C216.674 31.8808 216.528 31.5492 216.047 31.4147C215.878 31.3675 216.747 31.3268 217.98 31.3244C220.14 31.3201 220.196 31.3268 219.547 31.5009C219.177 31.6004 218.732 31.775 218.557 31.889C218.081 32.2005 214.363 36.658 214.431 36.8352C214.571 37.195 219.309 43.5364 219.677 43.8556C219.899 44.0483 220.271 44.2417 220.504 44.2853C220.737 44.3289 220.959 44.4156 220.997 44.4779C221.084 44.6169 218.923 44.6011 218.058 44.4564ZM147.302 29.5191C145.213 29.2462 143.683 28.2325 142.922 26.6177C141.925 24.5027 142.253 21.8514 143.706 20.2788C145.854 17.9535 150.8 17.9535 152.948 20.2788C154.803 22.287 154.769 25.9628 152.878 27.9048C151.673 29.1417 149.415 29.7953 147.302 29.5191ZM149.744 28.6126C150.403 28.2815 151.068 27.489 151.412 26.6245C151.673 25.9662 151.711 25.6515 151.715 24.0843C151.721 22.0746 151.566 21.4442 150.813 20.4089C149.519 18.6295 146.82 18.7837 145.667 20.7031C145.036 21.7528 144.933 22.2367 144.939 24.1482C144.943 25.6223 144.986 25.9768 145.228 26.586C145.55 27.3939 146.255 28.2798 146.799 28.5607C147.709 29.03 148.872 29.0505 149.744 28.6126ZM129.697 29.2322C130.573 28.9259 130.53 29.1953 130.53 24.089C130.53 19.0186 130.541 19.0966 129.755 18.9119C129.476 18.8464 130.187 18.8075 131.682 18.8066C133.344 18.8056 133.928 18.8403 133.64 18.9234C132.903 19.1362 132.834 19.371 132.834 21.6852V23.7649H135.331H137.828V21.6852C137.828 19.371 137.759 19.1362 137.022 18.9234C136.734 18.8405 137.321 18.8061 138.98 18.8086C140.283 18.8105 141.191 18.8485 140.999 18.8929C140.807 18.9373 140.533 19.0737 140.391 19.196C140.141 19.4114 140.133 19.5632 140.133 24.0633C140.133 29.1982 140.089 28.9258 140.965 29.2322C141.26 29.3353 140.798 29.3674 138.98 29.3701C136.756 29.3734 136.64 29.3619 137.074 29.1818C137.329 29.0763 137.602 28.8466 137.682 28.6713C137.771 28.4772 137.828 27.5805 137.828 26.3782V24.4038H135.331H132.834V26.3782C132.834 27.5805 132.891 28.4772 132.98 28.6713C133.06 28.8466 133.334 29.0763 133.588 29.1818C134.023 29.3619 133.907 29.3733 131.682 29.3701C129.864 29.3672 129.403 29.3353 129.697 29.2322ZM157.893 29.1366C158.239 28.9799 158.459 28.7861 158.505 28.5964C158.545 28.4338 158.561 26.2883 158.542 23.8288L158.506 19.3569L157.738 19.3164C156.041 19.2271 155.229 19.6111 155.005 20.6087C154.9 21.0738 154.882 20.9711 154.871 19.8408L154.857 18.536L155.721 18.627C156.881 18.7492 162.641 18.7432 163.724 18.6187L164.588 18.5193L164.582 19.8325L164.577 21.1457L164.358 20.5172C164.026 19.5617 163.685 19.376 162.151 19.3145L160.875 19.2633V23.9173C160.875 29.0304 160.859 28.9222 161.661 29.2118C162.027 29.3442 161.739 29.3683 159.722 29.3742L157.354 29.3811L157.893 29.1366ZM165.866 29.1629C166.624 28.7836 166.633 28.7282 166.633 24.0204C166.633 19.2944 166.619 19.2027 165.865 18.9555C165.501 18.8361 166.048 18.7978 168.877 18.7448C170.778 18.7092 172.493 18.6388 172.686 18.5883L173.038 18.4966L173.024 19.8211C173.013 20.8127 172.984 21.019 172.912 20.6419C172.849 20.3189 172.67 20.0094 172.412 19.7795C172.017 19.427 171.982 19.4208 170.411 19.4208H168.813V21.5928V23.7649H170.103C171.359 23.7649 171.404 23.7548 171.768 23.3914C172 23.1601 172.142 22.8845 172.142 22.6674C172.142 22.4746 172.177 22.3518 172.22 22.3945C172.334 22.5082 172.351 25.8093 172.238 25.8092C172.185 25.8092 172.142 25.6628 172.142 25.484C172.142 25.0577 171.64 24.5688 171.1 24.4687C170.863 24.4249 170.266 24.4067 169.773 24.4283L168.877 24.4676V26.5758V28.684L169.901 28.7254C171.889 28.8058 172.936 28.2958 173.601 26.9245C173.779 26.557 173.927 26.3289 173.93 26.4174C173.935 26.5781 173.474 28.7388 173.345 29.1631C173.282 29.3697 172.979 29.3867 169.349 29.3865C165.524 29.3862 165.432 29.3804 165.866 29.1629ZM175.289 29.2494C175.749 29.1161 176.076 28.7905 176.114 28.4284C176.129 28.2879 176.134 26.2147 176.126 23.8213C176.11 19.0463 176.118 19.0954 175.337 18.9119C175.056 18.846 175.759 18.806 177.264 18.8022C179.257 18.7973 179.562 18.8205 179.187 18.9489C178.43 19.2086 178.42 19.2785 178.418 24.2578L178.416 28.7755L179.856 28.724C181.853 28.6527 182.466 28.3174 183.197 26.8952C183.613 26.0852 183.615 26.2414 183.207 27.9789L182.876 29.3867L178.885 29.3752C176.311 29.3677 175.035 29.3231 175.289 29.2494Z" fill="#0A2640"/>
</svg>
