<svg width="48" height="48" viewBox="0 0 48 48" fill="none" xmlns="http://www.w3.org/2000/svg">
<path d="M11.1 44C9.64167 44 8.40208 43.4896 7.38125 42.4688C6.36042 41.4479 5.85 40.2083 5.85 38.75V32.5H12.2V4L15.19 7L18.18 4L21.17 7L24.16 4L27.15 7L30.15 4L33.15 7L36.15 4L39.15 7L42.15 4V38.75C42.15 40.2083 41.6396 41.4479 40.6187 42.4688C39.5979 43.4896 38.3583 44 36.9 44H11.1ZM36.9 41C37.5667 41 38.1083 40.7917 38.525 40.375C38.9417 39.9583 39.15 39.4167 39.15 38.75V9H15.2V32.5H34.65V38.75C34.65 39.4167 34.8583 39.9583 35.275 40.375C35.6917 40.7917 36.2333 41 36.9 41ZM17.85 16.9V13.9H29.85V16.9H17.85ZM17.85 23.6V20.6H29.85V23.6H17.85ZM34.5 16.9C34.1 16.9 33.75 16.75 33.45 16.45C33.15 16.15 33 15.8 33 15.4C33 15 33.15 14.65 33.45 14.35C33.75 14.05 34.1 13.9 34.5 13.9C34.9 13.9 35.25 14.05 35.55 14.35C35.85 14.65 36 15 36 15.4C36 15.8 35.85 16.15 35.55 16.45C35.25 16.75 34.9 16.9 34.5 16.9ZM34.5 23.35C34.1 23.35 33.75 23.2 33.45 22.9C33.15 22.6 33 22.25 33 21.85C33 21.45 33.15 21.1 33.45 20.8C33.75 20.5 34.1 20.35 34.5 20.35C34.9 20.35 35.25 20.5 35.55 20.8C35.85 21.1 36 21.45 36 21.85C36 22.25 35.85 22.6 35.55 22.9C35.25 23.2 34.9 23.35 34.5 23.35ZM11.05 41H31.65V35.5H8.85V38.75C8.85 39.4167 9.06083 39.9583 9.4825 40.375C9.90416 40.7917 10.4267 41 11.05 41Z" fill="#0A2640"/>
</svg>
