<svg width="48" height="48" viewBox="0 0 48 48" fill="none" xmlns="http://www.w3.org/2000/svg">
<path d="M18 34.7H29.5C29.9667 34.7 30.3583 34.6 30.675 34.4C30.9917 34.2 31.2667 33.9 31.5 33.5L35.4 24.4C35.4667 24.2333 35.525 23.9833 35.575 23.65C35.625 23.3167 35.65 23.0667 35.65 22.9V21.7C35.65 21.2333 35.5417 20.8917 35.325 20.675C35.1083 20.4583 34.7667 20.35 34.3 20.35H23.6L25.05 13.45C25.1167 13.1833 25.1167 12.9333 25.05 12.7C24.9833 12.4667 24.8667 12.2667 24.7 12.1L23.65 11L15.6 19.7L15.2 20.5C15.0667 20.7667 15 21.05 15 21.35V31.7C15 32.4667 15.3 33.1583 15.9 33.775C16.5 34.3917 17.2 34.7 18 34.7ZM24 44C21.2667 44 18.6833 43.475 16.25 42.425C13.8167 41.375 11.6917 39.9417 9.875 38.125C8.05833 36.3083 6.625 34.1833 5.575 31.75C4.525 29.3167 4 26.7333 4 24C4 21.2333 4.525 18.6333 5.575 16.2C6.625 13.7667 8.05833 11.65 9.875 9.85C11.6917 8.05 13.8167 6.625 16.25 5.575C18.6833 4.525 21.2667 4 24 4C26.7667 4 29.3667 4.525 31.8 5.575C34.2333 6.625 36.35 8.05 38.15 9.85C39.95 11.65 41.375 13.7667 42.425 16.2C43.475 18.6333 44 21.2333 44 24C44 26.7333 43.475 29.3167 42.425 31.75C41.375 34.1833 39.95 36.3083 38.15 38.125C36.35 39.9417 34.2333 41.375 31.8 42.425C29.3667 43.475 26.7667 44 24 44ZM24 41C28.7333 41 32.75 39.3417 36.05 36.025C39.35 32.7083 41 28.7 41 24C41 19.2667 39.35 15.25 36.05 11.95C32.75 8.65 28.7333 7 24 7C19.3 7 15.2917 8.65 11.975 11.95C8.65833 15.25 7 19.2667 7 24C7 28.7 8.65833 32.7083 11.975 36.025C15.2917 39.3417 19.3 41 24 41Z" fill="#0A2640"/>
</svg>
