<svg width="167" height="81" viewBox="0 0 167 81" fill="none" xmlns="http://www.w3.org/2000/svg">
<path d="M86.5456 54.028H86.5514C86.5905 54.0294 86.63 54.0323 86.6696 54.0337" fill="#69E6A6"/>
<path d="M17.411 41.0765C12.946 41.0765 9.31338 37.4444 9.31338 32.9779C9.31338 28.5125 12.946 24.8804 17.411 24.8804C21.8774 24.8804 25.5095 28.5125 25.5095 32.9779C25.5095 37.4444 21.8774 41.0765 17.411 41.0765ZM29.9441 15.5036C27.9386 15.5036 26.2455 16.836 25.6977 18.663C23.2591 17.2459 20.4294 16.4303 17.411 16.4303C8.28631 16.4303 0.863281 23.8533 0.863281 32.9779C0.863281 42.1036 8.28631 49.5266 17.411 49.5266C20.4294 49.5266 23.2591 48.7105 25.6977 47.2939C26.2455 49.1208 27.9386 50.4533 29.9441 50.4533C32.3924 50.4533 34.3771 48.4681 34.3771 46.0193V19.9376C34.3771 17.4883 32.3924 15.5036 29.9441 15.5036Z" fill="#69E6A6"/>
<path d="M56.986 41.0775C52.522 41.0775 48.8904 37.4464 48.8904 32.9769C48.8904 28.5125 52.522 24.8804 56.986 24.8804C61.4555 24.8804 65.0876 28.5125 65.0876 32.9769C65.0876 37.4464 61.4555 41.0775 56.986 41.0775ZM56.986 16.4313C53.962 16.4313 51.1318 17.2514 48.6921 18.666C48.1453 16.8416 46.4508 15.5067 44.4458 15.5067C41.9929 15.5067 40.0122 17.4863 40.0122 19.9386V53.637C40.0122 53.8079 40.0223 53.9753 40.0401 54.1412C40.2912 56.3567 42.1704 58.0766 44.4519 58.0766C46.7308 58.0766 48.614 56.3567 48.8554 54.1412L48.8777 53.8678V47.3984C51.2748 48.7511 54.0431 49.5276 56.9859 49.5276C66.1116 49.5276 73.5367 42.1026 73.5367 32.9769C73.5367 23.8563 66.1117 16.4313 56.986 16.4313Z" fill="#69E6A6"/>
<path d="M65.6261 68.4103C65.3152 68.5756 64.9855 68.6984 64.6462 68.7734C63.2377 69.0839 61.7855 68.5599 60.8888 67.477C58.826 71.1061 55.8948 74.2518 52.4174 76.5261C49.7632 78.2598 46.83 79.4887 43.7005 80.1785C41.5556 80.6517 39.374 80.8546 37.2001 80.7831C35.0263 80.8546 32.8453 80.6517 30.6998 80.1785C27.5703 79.4887 24.6376 78.2598 21.9829 76.5261C18.5055 74.2518 15.5748 71.1061 13.512 67.477C12.6148 68.5599 11.1627 69.0839 9.75464 68.7734C9.41481 68.6984 9.08512 68.5756 8.77421 68.4103C6.92188 67.4162 6.22344 65.1023 7.21553 63.251C9.35849 59.2557 13.6667 56.4975 18.1915 56.2231C19.208 56.1603 20.1874 56.4975 20.9487 57.1736C21.711 57.8492 22.1645 58.7804 22.2253 59.7969C22.3227 61.4047 21.4022 62.8442 20.0215 63.4848C21.4909 66.1699 23.6126 68.4869 26.1527 70.1465C29.0356 72.0333 32.4288 73.0817 35.8626 73.1699C36.3085 73.1829 36.7538 73.1786 37.2001 73.1556C37.6465 73.1778 38.0918 73.1824 38.5382 73.1699C41.972 73.0816 45.3652 72.0333 48.2481 70.1465C50.7882 68.4869 52.9094 66.1699 54.3788 63.4848C52.9982 62.8442 52.0781 61.4047 52.1749 59.7969C52.2358 58.7804 52.6898 57.8492 53.4521 57.1736C54.2134 56.4975 55.1923 56.1602 56.2088 56.2231C60.7336 56.4975 65.0423 59.2557 67.1848 63.251C68.1769 65.1023 67.4784 67.4162 65.6261 68.4103Z" fill="#69E6A6"/>
<path d="M110.609 41.7257C105.797 41.7257 101.883 37.8029 101.883 32.9809C101.883 28.1604 105.797 24.2377 110.609 24.2377C115.42 24.2377 119.334 28.1604 119.334 32.9809C119.334 37.8029 115.42 41.7257 110.609 41.7257ZM110.609 16.3095C101.435 16.3095 93.9739 23.7893 93.9739 32.9809C93.9739 42.1741 101.435 49.6523 110.609 49.6523C119.782 49.6523 127.245 42.173 127.245 32.9809C127.245 23.7903 119.782 16.3095 110.609 16.3095Z" fill="#69E6A6"/>
<path d="M166.137 32.9837V45.2515C166.137 47.681 164.167 49.6505 161.738 49.6505C159.308 49.6505 157.338 47.681 157.338 45.2515V32.9827C157.338 28.6552 153.829 25.1468 149.501 25.1468C145.173 25.1468 141.664 28.6552 141.664 32.9827V45.2515C141.664 47.681 139.694 49.6505 137.265 49.6505C134.835 49.6505 132.865 47.681 132.865 45.2515V20.7113C132.866 18.2812 134.835 16.3123 137.265 16.3123C138.924 16.3123 140.368 17.2308 141.118 18.5876C143.58 17.142 146.445 16.3123 149.501 16.3123C158.045 16.3123 165.105 22.802 166.033 31.1197C166.101 31.7314 166.137 32.3537 166.137 32.9837Z" fill="#69E6A6"/>
<path d="M88.1966 4.43215V45.2203C88.1966 47.6204 86.2884 49.5752 83.9066 49.6513H83.6206C83.581 49.6502 83.5415 49.6484 83.5019 49.6455H83.4962C81.1732 49.5065 79.331 47.5787 79.331 45.2201V4.43197C79.331 1.9847 81.3162 0 83.7635 0C86.2118 0 88.1966 1.98487 88.1966 4.43215Z" fill="#69E6A6"/>
</svg>
