<svg width="53" height="48" viewBox="0 0 53 48" fill="none" xmlns="http://www.w3.org/2000/svg">
<path d="M12.068 18.65C8.81164 18.65 6.16241 16.0011 6.16241 12.7437C6.16241 9.48729 8.81164 6.83832 12.068 6.83832C15.3252 6.83832 17.9744 9.48729 17.9744 12.7437C17.9744 16.0011 15.3252 18.65 12.068 18.65ZM21.2082 0C19.7458 0 18.5109 0.971778 18.1114 2.30397C16.3328 1.27083 14.2694 0.675913 12.068 0.675913C5.41346 0.675913 0 6.08911 0 12.7437C0 19.3993 5.41346 24.8124 12.068 24.8124C14.2694 24.8124 16.3328 24.2175 18.1114 23.1844C18.5109 24.5166 19.7458 25.4884 21.2082 25.4884C22.9937 25.4884 24.4412 24.0409 24.4412 22.2546V3.23378C24.4412 1.44744 22.9937 0 21.2082 0Z" fill="#69E6A6"/>
<path d="M40.9296 18.6508C37.674 18.6508 35.0256 16.0026 35.0256 12.7431C35.0256 9.48726 37.674 6.83828 40.9296 6.83828C44.1892 6.83828 46.8381 9.48726 46.8381 12.7431C46.8381 16.0026 44.1892 18.6508 40.9296 18.6508ZM40.9296 0.676677C38.7244 0.676677 36.66 1.27451 34.8809 2.30632C34.4822 0.975732 33.2464 0.00234985 31.7841 0.00234985C29.9954 0.00234985 28.5509 1.44581 28.5509 3.23454V27.8104C28.5509 27.9349 28.558 28.0571 28.5713 28.1779C28.7543 29.7938 30.1247 31.0481 31.7886 31.0481C33.4504 31.0481 34.824 29.7938 35.0001 28.1779L35.0163 27.9785V23.2606C36.7644 24.2472 38.7837 24.8132 40.9296 24.8132C47.5849 24.8132 53 19.3984 53 12.7431C53 6.09146 47.5849 0.676677 40.9296 0.676677Z" fill="#69E6A6"/>
<path d="M47.2308 38.5842C47.0043 38.7048 46.7637 38.7945 46.5159 38.849C45.4889 39.0755 44.43 38.6933 43.7758 37.9035C42.2715 40.5503 40.1341 42.8445 37.5977 44.5028C35.6621 45.7675 33.5231 46.6639 31.2407 47.1669C29.6764 47.5116 28.0855 47.6596 26.5002 47.6075C24.9146 47.6595 23.3238 47.5116 21.7595 47.1669C19.4773 46.6639 17.3383 45.7675 15.4024 44.5028C12.8663 42.8445 10.7289 40.5503 9.2243 37.9035C8.57043 38.6933 7.51127 39.0755 6.48425 38.849C6.23672 38.7945 5.9961 38.7048 5.76955 38.5842C4.41851 37.8591 3.90911 36.1719 4.63257 34.8216C6.19529 31.9079 9.33745 29.8966 12.6374 29.6963C13.3786 29.6504 14.0928 29.8966 14.6479 30.3895C15.204 30.8822 15.5349 31.5613 15.5793 32.3025C15.6502 33.4754 14.9788 34.525 13.9719 34.9921C15.0436 36.9506 16.5906 38.6402 18.4431 39.8502C20.5455 41.2262 23.0202 41.9909 25.5244 42.0554C25.85 42.065 26.1746 42.0614 26.5002 42.0453C26.8255 42.0618 27.1504 42.065 27.4757 42.0554C29.9799 41.9909 32.4547 41.2262 34.557 39.8502C36.4095 38.6402 37.9568 36.9506 39.0282 34.9921C38.0214 34.525 37.3502 33.4754 37.4211 32.3025C37.4655 31.5613 37.7964 30.8822 38.3523 30.3895C38.9076 29.8966 39.6215 29.6504 40.363 29.6963C43.663 29.8966 46.8048 31.9079 48.3678 34.8216C49.091 36.1719 48.5819 37.8591 47.2308 38.5842Z" fill="#69E6A6"/>
</svg>
