<svg width="137" height="124" viewBox="0 0 137 124" fill="none" xmlns="http://www.w3.org/2000/svg">
<path d="M31.1869 48.1965C22.7716 48.1965 15.9253 41.3509 15.9253 32.9329C15.9253 24.5176 22.7716 17.672 31.1869 17.672C39.6042 17.672 46.4505 24.5176 46.4505 32.9329C46.4505 41.3509 39.6042 48.1965 31.1869 48.1965ZM54.8074 0C51.0284 0 47.8369 2.51133 46.8047 5.95405C42.2082 3.28416 36.876 1.74673 31.1869 1.74673C13.9898 1.74673 0 15.7358 0 32.9329C0 50.1327 13.9898 64.1218 31.1869 64.1218C36.876 64.1218 42.2082 62.5844 46.8047 59.9145C47.8369 63.3573 51.0284 65.8686 54.8074 65.8686C59.4217 65.8686 63.1623 62.128 63.1623 57.5116V8.35692C63.1623 3.74057 59.4217 0 54.8074 0Z" fill="white"/>
<path d="M105.773 48.1983C97.3596 48.1983 90.5153 41.3548 90.5153 32.9312C90.5153 24.5173 97.3596 17.6717 105.773 17.6717C114.196 17.6717 121.042 24.5173 121.042 32.9312C121.042 41.3548 114.196 48.1983 105.773 48.1983ZM105.773 1.7485C100.074 1.7485 94.7391 3.29346 90.1413 5.95991C89.1111 2.52133 85.9175 0.00585938 82.1385 0.00585938C77.5159 0.00585938 73.7829 3.73614 73.7829 8.35868V71.869C73.7829 72.1909 73.8014 72.5066 73.8358 72.8189C74.3086 76.9946 77.8502 80.2362 82.1502 80.2362C86.4446 80.2362 89.9944 76.9946 90.4494 72.8189L90.4913 72.3035V60.1112C95.0088 62.661 100.227 64.1236 105.773 64.1236C122.972 64.1236 136.966 50.1304 136.966 32.9312C136.966 15.7417 122.972 1.7485 105.773 1.7485Z" fill="white"/>
<path d="M122.057 99.7116C121.471 100.023 120.85 100.255 120.209 100.396C117.555 100.981 114.819 99.9937 113.128 97.9525C109.241 104.793 103.717 110.721 97.1624 115.007C92.1603 118.275 86.6325 120.592 80.734 121.892C76.6914 122.782 72.5802 123.165 68.4834 123.03C64.3859 123.165 60.2747 122.782 56.2322 121.892C50.3344 120.592 44.8066 118.275 39.8038 115.007C33.2499 110.721 27.7262 104.793 23.838 97.9525C22.1482 99.9937 19.4111 100.981 16.757 100.396C16.1173 100.255 15.4955 100.023 14.91 99.7116C11.4186 97.8379 10.1022 93.4775 11.9718 89.9882C16.0102 82.4583 24.1304 77.2606 32.6583 76.7431C34.5738 76.6244 36.4194 77.2606 37.8539 78.5344C39.2911 79.8076 40.1463 81.5626 40.2609 83.4782C40.4441 86.5091 38.7091 89.2215 36.1071 90.4288C38.8765 95.4899 42.8745 99.8564 47.6618 102.983C53.0949 106.539 59.4902 108.515 65.9618 108.682C66.8033 108.707 67.642 108.698 68.4834 108.656C69.3242 108.699 70.1636 108.707 71.0044 108.682C77.4759 108.515 83.8713 106.539 89.3044 102.983C94.0917 99.8564 98.0903 95.4899 100.859 90.4288C98.2571 89.2215 96.5227 86.5091 96.706 83.4782C96.8206 81.5626 97.6758 79.8076 99.1123 78.5344C100.547 77.2606 102.392 76.6243 104.309 76.7431C112.836 77.2606 120.956 82.4583 124.995 89.9882C126.864 93.4775 125.548 97.8379 122.057 99.7116Z" fill="white"/>
</svg>
