<svg width="74" height="96" viewBox="0 0 74 96" fill="none" xmlns="http://www.w3.org/2000/svg">
<path d="M14.4214 95.8074L1.09254e-05 95.7831V93.6048V91.4265L12.8585 91.4312L25.7171 91.4358L26.4748 92.479C26.8916 93.0527 27.5656 93.9777 27.9726 94.5346C28.5993 95.3919 28.977 95.9478 28.8699 95.8551C28.855 95.8423 22.3532 95.8208 14.4214 95.8074ZM30.5435 95.0581C30.2333 94.659 29.7368 94.033 29.4402 93.667C29.1435 93.301 28.9266 92.9562 28.9581 92.9008C28.9896 92.8453 28.9816 92.8305 28.9403 92.8678C28.8681 92.933 28.661 92.6953 28.0353 91.8291L27.7445 91.4265H28.835C29.8138 91.4265 29.9355 91.4452 30.023 91.6086C30.0766 91.7087 30.1754 91.8472 30.2427 91.9164C30.3099 91.9856 30.7359 92.5402 31.1892 93.1488C31.6425 93.7574 32.0619 94.2853 32.121 94.3218C32.2503 94.4018 32.4445 94.1953 33.663 92.6816C34.1768 92.0434 34.6109 91.5212 34.6277 91.5212C34.6445 91.5212 35.0947 92.1606 35.628 92.9421C36.1614 93.7235 36.6529 94.3629 36.7202 94.3629C36.7875 94.3629 36.9171 94.2457 37.0083 94.1024C37.0995 93.9591 37.198 93.8206 37.2272 93.7946C37.2564 93.7685 37.5899 93.3209 37.9682 92.8C38.3466 92.279 38.7287 91.7546 38.8172 91.6346C38.9713 91.4257 39.0244 91.4176 40.0533 91.4451L41.1284 91.4739L39.9586 93.0486C38.5287 94.9734 38.3735 95.1787 38.0936 95.5164C37.8735 95.7819 37.8644 95.7837 36.7675 95.7824L35.6629 95.7814L35.1599 95.1669C34.8832 94.829 34.6275 94.5557 34.5915 94.5597C34.5556 94.5637 34.2918 94.8386 34.0053 95.1708L33.4843 95.7747L32.2959 95.7793L31.1075 95.7838L30.5435 95.0581ZM42.8026 93.8429C42.796 92.7744 42.7907 91.8362 42.7907 91.758C42.7907 91.6799 42.796 91.5733 42.8026 91.5212C42.8103 91.4596 44.3554 91.4265 47.2244 91.4265H51.6344L51.6053 91.8291L51.5762 92.2317L48.3319 92.2566L45.0877 92.2815V92.7538V93.2262H47.3137H49.5396V93.6051V93.984H47.3137H45.0877V94.4564V94.9287L48.3319 94.9536L51.5762 94.9786V95.3574V95.7363L47.1953 95.761L42.8144 95.7856L42.8026 93.8429ZM53.2329 95.5232C53.2326 95.38 53.2218 94.3996 53.2093 93.3446L53.1865 91.4264L54.2521 91.4265L55.3177 91.4265V93.1789V94.9312H58.7277H62.1377V95.3575V95.7837H57.6858H53.2339L53.2329 95.5232ZM63.6175 95.7078C63.5878 95.6597 63.5825 94.6874 63.6058 93.5471L63.6481 91.4739L67.6053 91.4764C72.825 91.48 72.5571 91.3647 72.5571 93.605C72.5571 95.2161 72.5171 95.3161 71.7721 95.5633C71.3449 95.7051 70.7659 95.7317 67.475 95.7612C65.211 95.7814 63.6497 95.7599 63.6175 95.7078ZM72.2281 95.139C72.1989 95.1098 72.1225 95.1389 72.0583 95.2036C71.9654 95.2972 71.9763 95.3081 72.1113 95.2567C72.2047 95.2211 72.2573 95.1681 72.2281 95.139ZM70.0425 94.8213C70.2802 94.713 70.2838 94.6955 70.2838 93.6489C70.2838 92.7771 70.2557 92.563 70.1275 92.4564C70.0098 92.3584 69.4606 92.3147 67.9014 92.279L65.8316 92.2317V93.5814V94.9312H67.8163C69.1207 94.9312 69.884 94.8936 70.0425 94.8213ZM0.137739 89.7917C0.112571 89.7261 0.103263 88.3301 0.117046 86.6895L0.142107 83.7067L1.52978 83.6805L2.91744 83.6544L3.14956 84.0594C3.27723 84.2822 3.68555 84.9921 4.05693 85.637C4.42832 86.282 4.70517 86.8533 4.67216 86.9067C4.63915 86.9602 4.65307 86.9786 4.70309 86.9477C4.7531 86.9167 4.87296 87.038 4.96945 87.2172C5.06593 87.3963 5.17991 87.5429 5.22275 87.5429C5.26558 87.5429 5.39276 87.3618 5.50537 87.1404C5.61798 86.9189 5.93961 86.3606 6.22011 85.8995C6.5006 85.4385 6.86366 84.8204 7.02691 84.5261C7.19015 84.2317 7.36982 83.9162 7.42618 83.8251C7.51602 83.6797 7.69516 83.6593 8.87934 83.6593H10.23V86.7851V89.911H9.37753H8.52503V87.685C8.52503 86.4607 8.4912 85.459 8.44988 85.459C8.38 85.459 7.7531 86.4875 7.1508 87.5903C7.00853 87.8508 6.63763 88.4795 6.32657 88.9874L5.76101 89.911H5.15522H4.54943L4.25235 89.3225C4.08896 88.9988 3.84916 88.5659 3.71946 88.3604C3.58977 88.1549 3.38906 87.8124 3.27343 87.5991C2.66975 86.4857 2.04709 85.459 1.97547 85.459C1.93093 85.459 1.89448 86.4607 1.89448 87.685V89.911H1.03901C0.438681 89.911 0.169859 89.8754 0.137739 89.7917ZM12.7556 89.7982C12.2712 89.6657 11.8047 89.1816 11.6586 88.6601C11.5778 88.3714 11.5501 87.7104 11.5717 86.5872C11.6072 84.7411 11.7089 84.3773 12.3019 83.9742C12.7964 83.6381 13.4271 83.5645 15.7996 83.566C18.3352 83.5678 18.974 83.6601 19.4228 84.0901C19.9119 84.5587 20.0053 85.0547 19.9702 86.998C19.9347 88.9672 19.8782 89.1607 19.2094 89.6035L18.8166 89.8636L15.9678 89.8806C14.2176 89.8911 12.9789 89.8593 12.7556 89.7982ZM17.6369 88.3076C17.9961 88.1284 18.1877 87.5834 18.1813 86.7595C18.1696 85.2587 17.916 85.0686 15.9254 85.0686C14.3982 85.0686 14.0161 85.1224 13.7441 85.3759C13.4732 85.6283 13.4032 85.9405 13.4032 86.8966C13.4032 87.8406 13.5625 88.1671 14.1225 88.3705C14.5678 88.5322 17.2841 88.4836 17.6369 88.3076ZM21.3125 86.7851V83.6593L22.6623 83.6607C23.4047 83.6618 24.056 83.6935 24.1098 83.7318C24.3847 83.9276 25.8567 85.8599 25.8004 85.951C25.7631 86.0113 25.7778 86.0302 25.8346 85.9951C25.8893 85.9613 26.2539 86.3277 26.6448 86.8093C27.0357 87.2909 27.486 87.8341 27.6454 88.0165L27.9353 88.348L27.9392 86.0036L27.943 83.6593H28.8429H29.7428V86.7851V89.9109H28.3811H27.0194L25.6736 88.277C24.9334 87.3783 24.2567 86.5578 24.1698 86.4536C24.0829 86.3494 23.8469 86.0617 23.6453 85.8142C23.4437 85.5668 23.2413 85.3643 23.1955 85.3643C23.1497 85.3643 23.1122 86.3873 23.1122 87.6376V89.9109H22.2123H21.3125L21.3125 86.7851ZM33.3201 87.5192L33.2948 85.1275L31.9924 85.1011L30.69 85.0748V84.367V83.6593H34.242H37.7941V84.367V85.0748L36.4917 85.1011L35.1893 85.1275L35.164 87.5192L35.1386 89.9109H34.242H33.3454L33.3201 87.5192ZM42.0566 86.7851V83.6593H42.9565H43.8563V86.7851V89.9109H42.9565H42.0566V86.7851ZM45.3403 89.8478C45.3056 89.8131 45.2772 88.4064 45.2772 86.722V83.6593L46.7217 83.6637L48.1662 83.668L48.7069 84.3504C49.4689 85.3121 50.425 86.492 51.4475 87.7323L51.9551 88.348L51.9804 86.0037L52.0058 83.6593H52.904H53.8022V86.7851V89.9109H52.4348H51.0674L50.4775 89.1769C50.1531 88.7731 49.8388 88.4001 49.779 88.348C49.7192 88.2959 49.481 88.015 49.2498 87.7237C49.0185 87.4324 48.467 86.7505 48.0241 86.2082L47.219 85.2224L47.1936 87.5667L47.1683 89.9109H46.2859C45.8006 89.9109 45.3751 89.8825 45.3403 89.8478ZM56.3597 89.8287C55.831 89.695 55.5212 89.4375 55.269 88.922C55.0175 88.4081 55.0156 88.3888 55.0482 86.6708C55.0852 84.7231 55.1805 84.3687 55.7735 83.9739C56.3193 83.6105 56.952 83.546 59.6104 83.5828C62.2753 83.6197 62.5149 83.6599 62.962 84.1457C63.4037 84.6255 63.4754 84.9893 63.4687 86.7167C63.4651 87.6056 63.4184 88.4964 63.3646 88.6963C63.2302 89.1952 62.7324 89.6685 62.2013 89.8023C61.7441 89.9174 56.799 89.9397 56.3597 89.8287ZM60.8706 88.3826C61.4649 88.2329 61.5979 87.9916 61.6465 86.9738C61.6951 85.9576 61.568 85.5132 61.157 85.2626C60.8958 85.1033 60.6704 85.0808 59.3339 85.0805C58.461 85.0805 57.68 85.125 57.5076 85.1851C57.0581 85.3418 56.935 85.6745 56.9164 86.7822C56.8908 88.3065 57.1165 88.476 59.1831 88.4848C59.8763 88.4876 60.6357 88.4417 60.8706 88.3826ZM64.1284 89.8399C64.1295 89.8008 64.7897 89.1082 65.5961 88.3007C66.4025 87.4932 67.0611 86.7899 67.0598 86.7378C67.0584 86.6857 66.4457 85.9823 65.6979 85.1748L64.3384 83.7066L65.4403 83.679L66.5423 83.6514L66.8738 84.0116C67.5164 84.7097 68.3424 85.6687 68.3736 85.7528C68.4509 85.9613 68.6866 85.7651 69.5734 84.7536L70.5206 83.6733L71.6413 83.6662L72.7619 83.6592L72.0675 84.4303C71.6856 84.8545 71.2552 85.3285 71.1112 85.4839C70.5287 86.1118 70.0487 86.708 70.0769 86.7684C70.0933 86.8036 70.3629 87.0977 70.676 87.422C71.0213 87.7796 71.2181 88.0555 71.1761 88.1233C71.1358 88.1886 71.1476 88.2101 71.2046 88.1749C71.2582 88.1417 71.6804 88.5081 72.1427 88.9891L72.9834 89.8635L71.8467 89.8932L70.7101 89.9228L69.6681 88.8258C69.0951 88.2224 68.5971 87.7295 68.5615 87.7305C68.526 87.7316 68.0997 88.1432 67.6143 88.6454C67.1289 89.1476 66.6491 89.6378 66.5481 89.7347C66.3903 89.8862 66.2074 89.9109 65.2457 89.9109C64.6303 89.9109 64.1276 89.879 64.1284 89.8399ZM37.6994 87.6376V86.8798H39.0729H40.4464V87.6376V88.3954H39.0729H37.6994V87.6376ZM1.09254e-05 47.5702V16.9749H12.9713C20.6734 16.9749 25.9644 17.01 25.996 17.0613C26.0254 17.1087 26.1158 17.503 26.1969 17.9374C26.7371 20.8288 28.3547 24.5128 30.183 27.0155C30.3543 27.2499 30.6341 27.6336 30.8047 27.868C30.9754 28.1024 31.1375 28.3155 31.1651 28.3416C31.1926 28.3676 31.4253 28.6447 31.682 28.9573C32.7065 30.2045 35.1663 32.5212 36.5154 33.5095C36.7238 33.6621 36.9156 33.8086 36.9416 33.8349C36.9677 33.8613 37.4579 34.1926 38.0309 34.5713C38.604 34.9499 39.1155 35.291 39.1676 35.3291C39.2197 35.3672 39.4754 35.5147 39.7359 35.6569C39.9964 35.7991 40.2006 35.9539 40.1896 36.001C40.1786 36.048 40.2212 36.0809 40.2843 36.0741C40.3474 36.0673 41.1023 36.4079 41.9619 36.831C43.7366 37.7046 44.3077 37.9407 46.1865 38.5771C51.4718 40.3676 56.7706 40.7152 62.6445 39.6568C64.7481 39.2777 67.4099 38.5417 69.1471 37.8587C70.1299 37.4724 71.6027 36.816 72.1546 36.5184L72.7466 36.1992V57.1823V78.1654H60.1489H47.5513L47.5272 66.8009L47.5032 55.4364L43.8564 60.3149C41.8506 62.998 40.1377 65.2882 40.05 65.4041C39.9622 65.5199 39.6865 65.8918 39.4372 66.2304C39.1879 66.5691 38.96 66.8674 38.9306 66.8935C38.9012 66.9195 38.7151 67.1646 38.517 67.4381C38.319 67.7117 38.1286 67.935 38.0939 67.9346C38.0372 67.9335 37.2223 66.4579 35.8213 63.8185C35.5438 63.2956 35.2397 62.7399 35.1457 62.5836C35.0516 62.4273 34.7725 61.9158 34.5255 61.447C33.5829 59.6574 33.2179 58.9748 33.0571 58.7C32.9656 58.5437 32.693 58.0409 32.4514 57.5825C32.2098 57.1242 31.9734 56.6767 31.9261 56.588C31.8788 56.4993 31.6839 56.1588 31.493 55.8314C31.3021 55.504 31.1696 55.1741 31.1987 55.0984C31.2277 55.0227 31.2084 54.9709 31.1557 54.9833C31.0253 55.014 30.2992 53.6357 30.3754 53.5021C30.4088 53.4435 30.4008 53.4276 30.3577 53.4668C30.2738 53.5429 30.1201 53.2942 29.323 51.792C29.0446 51.2674 28.4817 50.22 28.0721 49.4646L27.3274 48.0912L27.3034 63.1283L27.2794 78.1654H13.6397H0L1.09254e-05 47.5702ZM54.3231 35.6231C50.3066 35.3078 46.3453 33.48 43.4733 30.6166C42.6727 29.8185 42.5134 29.6403 41.8672 28.8212C40.2933 26.8264 39.041 24.0658 38.4912 21.3795C38.198 19.9473 38.09 17.3295 38.2626 15.8383C38.7466 11.6547 40.4841 8.00278 43.3326 5.18205C44.7109 3.81713 45.3304 3.32546 46.72 2.49341C49.5714 0.786146 52.4332 -0.000467704 55.7913 2.08623e-07C60.0254 0.000573016 63.7297 1.28362 67.0159 3.88781C68.5885 5.13406 70.6522 7.54396 71.2229 8.80056C71.2749 8.91525 71.4181 9.171 71.541 9.36889C71.8645 9.88998 72.5091 11.408 72.7798 12.2862C73.405 14.3144 73.6002 15.6602 73.5905 17.8748C73.5828 19.6593 73.5044 20.4663 73.2135 21.7584C72.9037 23.1346 71.9746 25.6894 71.6434 26.0757C71.5729 26.158 71.5152 26.2581 71.5152 26.2981C71.5152 26.4165 70.4835 28.0616 70.0594 28.6194C68.295 30.9402 65.8736 32.8832 63.2744 34.064C60.4926 35.3278 57.4073 35.8651 54.3231 35.6231Z" fill="#0A2640"/>
</svg>
