<svg width="376" height="58" viewBox="0 0 376 58" fill="none" xmlns="http://www.w3.org/2000/svg">
<path d="M93.1416 17.4342C96.0295 17.4342 97.7828 15.337 97.7828 11.5899C97.7828 9.8707 97.0607 9.04588 95.101 9.04588H92.4885L90.5631 17.4342H93.1416ZM88.7068 4.92058H95.4451C100.533 4.92058 102.664 6.91437 102.664 11.5212C102.664 18.2249 98.6766 21.5598 92.5229 21.5598H89.6006L88.0534 28.2979H83.3094L88.7068 4.92058Z" fill="#0A2640"/>
<path d="M107.51 4.92058H112.255L106.857 28.2979H102.113L107.51 4.92058Z" fill="#0A2640"/>
<path d="M124.493 24.1725L123.564 28.2981H111.394L113.044 21.1128L112.082 21.7318L110.672 18.5344L114.145 16.3685L116.792 4.92053H121.536L119.68 12.9309L122.98 10.9025L124.39 14.0652L118.614 17.6749L117.101 24.1725H124.493Z" fill="#0A2640"/>
<path d="M131.264 4.92058H136.008L133.671 15.0278L135.871 14.7527L141.921 4.92058H147.113L139.653 16.6437L141.818 28.2979H136.833L135.321 18.9126L132.708 19.1531L130.611 28.2979H125.867L131.264 4.92058Z" fill="#0A2640"/>
<path d="M156.187 20.1159L156.669 9.04583H155.947L150.996 20.1159H156.187ZM153.162 4.92053H161.344L160.622 28.2981H155.878L156.016 24.2412H149.208L147.386 28.2981H142.642L153.162 4.92053Z" fill="#0A2640"/>
<path d="M173.822 16.8155C176.401 16.8155 177.845 14.3745 177.845 11.7961C177.845 9.83664 177.191 8.97717 175.232 8.97717H172.585L170.762 16.8155H173.822ZM168.769 4.92058H175.507C180.354 4.92058 182.726 6.8113 182.726 11.5899C182.726 16.0591 180.354 19.0844 177.501 20.219L179.391 28.2979H174.647L173.1 20.8721H169.834L168.115 28.2979H163.371L168.769 4.92058Z" fill="#0A2640"/>
<path d="M182.071 27.3012L182.862 23.8977C184.547 24.2071 187.4 24.5853 189.154 24.5853C191.732 24.5853 193.245 23.7602 193.245 21.1818C193.245 19.8754 192.798 19.4629 189.772 18.0878C186.678 16.6783 185.372 15.2689 185.372 12.1748C185.372 7.84308 188.397 4.50825 193.313 4.50825C196.064 4.50825 199.02 5.26466 200.499 5.81464L199.639 9.18353C198.023 8.90869 195.204 8.56484 193.451 8.56484C191.388 8.56484 190.185 9.80252 190.185 11.6245C190.185 12.8966 190.563 13.3091 193.382 14.5812C197.232 16.3001 198.058 17.5721 198.058 20.6318C198.058 25.9261 194.517 28.7109 189.222 28.7109C186.575 28.7109 183.584 27.9202 182.071 27.3012Z" fill="#0A2640"/>
<path d="M205.001 4.92058H209.745L207.408 15.0278L209.608 14.7527L215.658 4.92058H220.849L213.389 16.6437L215.555 28.2979H210.57L209.057 18.9126L206.445 19.1531L204.348 28.2979H199.603L205.001 4.92058Z" fill="#0A2640"/>
<path d="M229.924 20.1159L230.405 9.04583H229.683L224.733 20.1159H229.924ZM226.899 4.92053H235.081L234.359 28.2981H229.615L229.752 24.2412H222.945L221.123 28.2981H216.379L226.899 4.92053Z" fill="#0A2640"/>
<path d="M250.068 4.92058H257.425L257.459 21.938L265.229 4.92058H272.723L267.326 28.2979H262.582L267.051 9.04588H266.844L258.491 27.2666H254.021L253.987 9.04588H253.815L249.414 28.2979H244.67L250.068 4.92058Z" fill="#0A2640"/>
<path d="M273.099 23.4167C273.099 22.179 273.306 20.7005 273.546 19.6006L276.95 4.92111H281.694L278.119 20.357C277.947 21.0787 277.809 21.8008 277.809 22.6259C277.809 24.2418 278.909 24.5853 280.628 24.5853C283.619 24.5853 284.41 23.2449 285.063 20.357L288.638 4.92111H293.383L289.807 20.357C288.467 26.2012 285.716 28.7109 280.216 28.7109C275.953 28.7109 273.099 27.0607 273.099 23.4167Z" fill="#0A2640"/>
<path d="M302.698 16.8155C305.276 16.8155 306.72 14.3745 306.72 11.7961C306.72 9.83664 306.067 8.97717 304.108 8.97717H301.46L299.638 16.8155H302.698ZM297.644 4.92058H304.382C309.23 4.92058 311.602 6.8113 311.602 11.5899C311.602 16.0591 309.23 19.0844 306.376 20.219L308.267 28.2979H303.523L301.976 20.8721H298.71L296.991 28.2979H292.246L297.644 4.92058Z" fill="#0A2640"/>
<path d="M323.22 20.1159L323.702 9.04583H322.98L318.029 20.1159H323.22ZM320.195 4.92053H328.377L327.655 28.2981H322.911L323.049 24.2412H316.242L314.419 28.2981H309.675L320.195 4.92053Z" fill="#0A2640"/>
<path d="M333.258 4.92058H338.003L336.559 23.9321H337.04L344.809 5.26443H350.035L348.901 23.9321H349.382L357.083 4.92058H361.827L351.823 28.2979H344.947L346.081 11.3151L339.275 28.2979H332.192L333.258 4.92058Z" fill="#0A2640"/>
<path d="M370.11 20.1159L370.592 9.04583H369.87L364.919 20.1159H370.11ZM367.085 4.92053H375.267L374.545 28.2981H369.801L369.939 24.2412H363.132L361.31 28.2981H356.565L367.085 4.92053Z" fill="#0A2640"/>
<path d="M85.9969 44.8242H83.316V43.4494H90.19V44.8242H87.5367V52.8672H85.9969V44.8242Z" fill="#0A2640"/>
<path d="M102.578 43.4497L100.722 52.8672H98.2476L96.6391 45.3058L95.0305 52.8672H92.5422L90.7 43.4497H92.3085L93.6557 51.5338H93.9447L95.7317 43.4773H97.5329L99.32 51.5338H99.6089L100.956 43.4497H102.578Z" fill="#0A2640"/>
<path d="M109.633 48.2067C109.633 45.8832 109.207 44.6458 107.406 44.6458C105.591 44.6458 105.165 45.8694 105.165 48.2067C105.165 50.5576 105.577 51.6714 107.406 51.6714C109.221 51.6714 109.633 50.5852 109.633 48.2067ZM103.57 48.2067C103.57 45.0584 104.464 43.2986 107.406 43.2986C110.348 43.2986 111.228 45.0446 111.228 48.2067C111.228 51.41 110.348 53.0186 107.406 53.0186C104.45 53.0186 103.57 51.3824 103.57 48.2067Z" fill="#0A2640"/>
<path d="M112.027 52.4825C112.948 52.4825 113.278 52.345 113.278 51.2865V43.4499H114.818V51.4101C114.818 53.4726 113.979 53.8438 112.027 53.8438V52.4825Z" fill="#0A2640"/>
<path d="M116.922 43.4497H122.861V44.7972H118.462V47.4502H122.036V48.7704H118.462V51.52H122.861V52.8672H116.922V43.4497Z" fill="#0A2640"/>
<path d="M131.153 51.5338C132.102 51.5338 132.665 51.2451 132.665 50.1176C132.665 49.059 131.868 48.7704 131.125 48.7704H129.091V51.5338H131.153ZM131.098 47.4502C132.033 47.4502 132.431 46.9968 132.431 46.0892C132.431 45.168 131.978 44.7834 131.043 44.7834H129.091V47.4502H131.098ZM127.551 43.4497H131.125C132.995 43.4497 133.999 44.1509 133.999 45.8968C133.999 47.0379 133.642 47.6017 132.899 48.0143C133.71 48.3302 134.233 48.9078 134.233 50.2001C134.233 52.1249 133.064 52.8672 131.235 52.8672H127.551V43.4497Z" fill="#0A2640"/>
<path d="M141.617 48.2067C141.617 45.8832 141.191 44.6458 139.39 44.6458C137.575 44.6458 137.149 45.8694 137.149 48.2067C137.149 50.5576 137.561 51.6714 139.39 51.6714C141.205 51.6714 141.617 50.5852 141.617 48.2067ZM135.554 48.2067C135.554 45.0584 136.447 43.2986 139.39 43.2986C142.332 43.2986 143.212 45.0446 143.212 48.2067C143.212 51.41 142.332 53.0186 139.39 53.0186C136.434 53.0186 135.554 51.3824 135.554 48.2067Z" fill="#0A2640"/>
<path d="M144.987 43.4494H146.527V52.8669H144.987V43.4494Z" fill="#0A2640"/>
<path d="M148.273 52.6472L148.424 51.4236C149.235 51.5199 150.542 51.6571 151.256 51.6571C152.411 51.6571 152.961 51.135 152.961 50.1586C152.961 49.3749 152.535 49.1001 151.091 48.7427C149.043 48.2203 148.177 47.6014 148.177 45.979C148.177 44.0818 149.428 43.2846 151.311 43.2846C152.177 43.2846 153.538 43.4769 154.295 43.6147L154.171 44.8655C153.346 44.7695 152.026 44.6318 151.449 44.6318C150.294 44.6318 149.717 45.0582 149.717 45.8692C149.717 46.7354 150.211 46.9278 151.82 47.3817C153.786 47.9314 154.501 48.4538 154.501 50.0626C154.501 52.1248 153.209 53.0181 151.353 53.0181C150.459 53.0181 149.07 52.7981 148.273 52.6472Z" fill="#0A2640"/>
<path d="M156.152 43.4497H157.692V47.698L159.081 47.5879L160.992 43.4497H162.765L160.442 48.1793L162.861 52.8672H161.06L159.094 48.9351L157.692 49.0452V52.8672H156.152V43.4497Z" fill="#0A2640"/>
<path d="M169.668 48.2067C169.668 45.8832 169.242 44.6458 167.441 44.6458C165.626 44.6458 165.2 45.8694 165.2 48.2067C165.2 50.5576 165.612 51.6714 167.441 51.6714C169.256 51.6714 169.668 50.5852 169.668 48.2067ZM163.605 48.2067C163.605 45.0584 164.498 43.2986 167.441 43.2986C170.383 43.2986 171.263 45.0446 171.263 48.2067C171.263 51.41 170.383 53.0186 167.441 53.0186C164.485 53.0186 163.605 51.3824 163.605 48.2067Z" fill="#0A2640"/>
<path d="M175.554 51.4099L179.898 45.072V44.7972H175.554V43.4497H181.741V44.9205L177.382 51.2584V51.52H181.741V52.8672H175.554V51.4099Z" fill="#0A2640"/>
<path d="M187.943 49.4986L186.788 44.742H186.1L184.945 49.4986H187.943ZM184.904 43.4494H187.97L190.293 52.8672H188.74L188.245 50.8599H184.643L184.134 52.8672H182.594L184.904 43.4494Z" fill="#0A2640"/>
<path d="M202.489 43.4497L200.634 52.8672H198.159L196.55 45.3058L194.942 52.8672H192.454L190.611 43.4497H192.22L193.567 51.5338H193.856L195.643 43.4773H197.444L199.231 51.5338H199.52L200.867 43.4497H202.489Z" fill="#0A2640"/>
<path d="M203.482 52.6472L203.632 51.4236C204.444 51.5199 205.75 51.6571 206.465 51.6571C207.62 51.6571 208.17 51.135 208.17 50.1586C208.17 49.3749 207.743 49.1001 206.3 48.7427C204.251 48.2203 203.385 47.6014 203.385 45.979C203.385 44.0818 204.636 43.2846 206.52 43.2846C207.386 43.2846 208.747 43.4769 209.503 43.6147L209.38 44.8655C208.554 44.7695 207.235 44.6318 206.657 44.6318C205.503 44.6318 204.925 45.0582 204.925 45.8692C204.925 46.7354 205.42 46.9278 207.029 47.3817C208.995 47.9314 209.709 48.4538 209.709 50.0626C209.709 52.1248 208.417 53.0181 206.561 53.0181C205.667 53.0181 204.279 52.7981 203.482 52.6472Z" fill="#0A2640"/>
<path d="M210.852 51.4099L215.196 45.072V44.7972H210.852V43.4497H217.039V44.9205L212.68 51.2584V51.52H217.039V52.8672H210.852V51.4099Z" fill="#0A2640"/>
<path d="M218.703 43.4497H224.643V44.7972H220.243V47.4502H223.818V48.7704H220.243V51.52H224.643V52.8672H218.703V43.4497Z" fill="#0A2640"/>
<path d="M228.934 48.1651C228.934 44.8655 229.841 43.2984 232.645 43.2984C233.704 43.2984 235.093 43.5045 235.849 43.6693L235.794 44.8929C235.079 44.7968 233.787 44.6594 232.879 44.6594C231.01 44.6594 230.528 45.5118 230.528 48.1651C230.528 50.7221 230.927 51.6709 232.838 51.6709C233.333 51.6709 233.993 51.6022 234.323 51.5607V49.2786H233.168V47.9176H235.849V52.7021C235.093 52.8257 233.594 53.0181 232.701 53.0181C229.703 53.0181 228.934 51.2859 228.934 48.1651Z" fill="#0A2640"/>
<path d="M243.412 48.2067C243.412 45.8832 242.985 44.6458 241.185 44.6458C239.37 44.6458 238.943 45.8694 238.943 48.2067C238.943 50.5576 239.356 51.6714 241.185 51.6714C242.999 51.6714 243.412 50.5852 243.412 48.2067ZM237.349 48.2067C237.349 45.0584 238.243 43.2986 241.185 43.2986C244.127 43.2986 245.007 45.0446 245.007 48.2067C245.007 51.41 244.127 53.0186 241.185 53.0186C238.229 53.0186 237.349 51.3824 237.349 48.2067Z" fill="#0A2640"/>
<path d="M248.377 44.8242H245.696V43.4494H252.57V44.8242H249.916V52.8672H248.377V44.8242Z" fill="#0A2640"/>
<path d="M259.321 48.2067C259.321 45.8832 258.895 44.6458 257.094 44.6458C255.279 44.6458 254.853 45.8694 254.853 48.2067C254.853 50.5576 255.266 51.6714 257.094 51.6714C258.909 51.6714 259.321 50.5852 259.321 48.2067ZM253.258 48.2067C253.258 45.0584 254.152 43.2986 257.094 43.2986C260.036 43.2986 260.916 45.0446 260.916 48.2067C260.916 51.41 260.036 53.0186 257.094 53.0186C254.138 53.0186 253.258 51.3824 253.258 48.2067Z" fill="#0A2640"/>
<path d="M273.8 43.4497L271.944 52.8672H269.469L267.861 45.3058L266.252 52.8672H263.764L261.921 43.4497H263.53L264.877 51.5338H265.166L266.953 43.4773H268.754L270.541 51.5338H270.83L272.178 43.4497H273.8Z" fill="#0A2640"/>
<path d="M275.204 43.4497H281.143V44.7972H276.744V47.4502H280.319V48.7704H276.744V51.52H281.143V52.8672H275.204V43.4497Z" fill="#0A2640"/>
<path d="M289.078 51.52C290.975 51.52 291.278 50.0627 291.278 48.0005C291.278 45.9383 290.975 44.7972 289.078 44.7972H287.373V51.52H289.078ZM285.833 43.4497H289.078C292.13 43.4497 292.859 45.0582 292.859 48.0005C292.859 50.9973 292.199 52.8672 289.078 52.8672H285.833V43.4497Z" fill="#0A2640"/>
<path d="M300.298 48.2067C300.298 45.8832 299.871 44.6458 298.071 44.6458C296.256 44.6458 295.829 45.8694 295.829 48.2067C295.829 50.5576 296.242 51.6714 298.071 51.6714C299.885 51.6714 300.298 50.5852 300.298 48.2067ZM294.234 48.2067C294.234 45.0584 295.128 43.2986 298.071 43.2986C301.013 43.2986 301.893 45.0446 301.893 48.2067C301.893 51.41 301.013 53.0186 298.071 53.0186C295.115 53.0186 294.234 51.3824 294.234 48.2067Z" fill="#0A2640"/>
<path d="M306.294 48.1651C306.294 44.8655 307.201 43.2984 310.006 43.2984C311.064 43.2984 312.453 43.5045 313.209 43.6693L313.154 44.8929C312.439 44.7968 311.147 44.6594 310.239 44.6594C308.37 44.6594 307.888 45.5118 307.888 48.1651C307.888 50.7221 308.287 51.6709 310.198 51.6709C310.693 51.6709 311.353 51.6022 311.683 51.5607V49.2786H310.528V47.9176H313.209V52.7021C312.453 52.8257 310.954 53.0181 310.061 53.0181C307.063 53.0181 306.294 51.2859 306.294 48.1651Z" fill="#0A2640"/>
<path d="M318.724 48.1928C319.865 48.1928 320.305 47.4367 320.305 46.4606C320.305 45.4018 319.782 44.7834 318.696 44.7834H316.661V48.1928H318.724ZM315.121 43.4497H318.696C320.772 43.4497 321.886 44.3708 321.886 46.4468C321.886 47.7802 321.35 48.7014 320.359 49.1691L321.899 52.8672H320.208L318.861 49.5124H316.661V52.8672H315.121V43.4497Z" fill="#0A2640"/>
<path d="M325.242 48.99L322.286 43.4494H324.004L325.998 47.4778L327.991 43.4494H329.71L326.781 48.99V52.8672H325.242V48.99Z" fill="#0A2640"/>
<path d="M329.628 50.8877H331.251V52.8674H329.628V50.8877Z" fill="#0A2640"/>
<path d="M0 5.94912C0.18734 5.91036 8.72717 49.8495 27.8488 57.9856C28.2798 57.623 10.1448 30.1133 35.301 6.34142C22.2089 13.6204 7.77226 29.1126 0 5.94912Z" fill="#0A2640"/>
<path d="M20.3308 7.51816C20.3308 3.36614 16.9648 0.000189781 12.8128 0.000189781C8.66109 0.000189781 5.29514 3.36614 5.29514 7.51816C5.29514 11.6702 8.66109 15.0361 12.8128 15.0361C16.9648 15.0361 20.3308 11.6702 20.3308 7.51816Z" fill="#0A2640"/>
<path d="M37.4026 57.9856C37.3278 55.1746 29.616 43.7434 43.865 32.4248C38.2427 34.7783 29.0907 47.1992 23.979 32.4248C23.8701 31.8543 25.0376 48.6374 37.4026 57.9856Z" fill="#0A2640"/>
<path d="M35.3664 33.6017C35.3664 31.3633 33.5518 29.5487 31.3134 29.5487C29.075 29.5487 27.2603 31.3633 27.2603 33.6017C27.2603 35.8401 29.075 37.6548 31.3134 37.6548C33.5518 37.6548 35.3664 35.8401 35.3664 33.6017Z" fill="#0A2640"/>
<path d="M43.3984 57.9856C43.9956 56.3512 56.1918 37.8389 37.9814 20.0043C43.7267 22.5804 58.3777 38.5701 63.6669 20.0043C63.6669 20.0043 59.0134 51.7752 43.3984 57.9856Z" fill="#0A2640"/>
<path d="M60.208 20.2657C60.208 17.1608 57.6909 14.6438 54.586 14.6438C51.4811 14.6438 48.9641 17.1608 48.9641 20.2657C48.9641 23.3706 51.4811 25.8877 54.586 25.8877C57.6909 25.8877 60.208 23.3706 60.208 20.2657Z" fill="#0A2640"/>
</svg>
