<svg width="36" height="36" viewBox="0 0 36 36" fill="none" xmlns="http://www.w3.org/2000/svg">
<path d="M3 36C2.2 36 1.5 35.7 0.9 35.1C0.3 34.5 0 33.8 0 33V19.5H3V33H16.5V36H3ZM19.5 36V33H33V19.5H36V33C36 33.8 35.7 34.5 35.1 35.1C34.5 35.7 33.8 36 33 36H19.5ZM5.85 28.6L11.75 21L16.4 27.35L23 18.8L30.35 28.6H5.85ZM0 16.5V3C0 2.2 0.3 1.5 0.9 0.9C1.5 0.3 2.2 0 3 0H16.5V3H3V16.5H0ZM33 16.5V3H19.5V0H33C33.8 0 34.5 0.3 35.1 0.9C35.7 1.5 36 2.2 36 3V16.5H33ZM25.2 13.5C24.42 13.5 23.775 13.245 23.265 12.735C22.755 12.225 22.5 11.58 22.5 10.8C22.5 10.02 22.755 9.375 23.265 8.865C23.775 8.355 24.42 8.1 25.2 8.1C25.98 8.1 26.625 8.355 27.135 8.865C27.645 9.375 27.9 10.02 27.9 10.8C27.9 11.58 27.645 12.225 27.135 12.735C26.625 13.245 25.98 13.5 25.2 13.5Z" fill="#0A2640"/>
</svg>
