<svg width="138" height="95" viewBox="0 0 138 95" fill="none" xmlns="http://www.w3.org/2000/svg">
<path d="M56.9458 94.0858C56.1599 93.2201 56.1552 93.1037 56.8569 91.885C57.5325 90.7115 57.2048 89.9579 56.5077 91.0821C56.0137 91.8791 50.8889 94.1188 49.5586 94.1192C46.814 94.12 44.8339 91.9955 44.8339 89.0499C44.8339 88.2388 44.5262 88.032 43.0201 87.8306C41.9291 87.6847 40.5318 87.0477 39.5136 86.2321C38.5827 85.4863 37.7235 84.876 37.6044 84.876C37.4852 84.876 36.9519 85.4863 36.4191 86.2321C35.5932 87.3885 35.5301 87.7366 35.9911 88.5952C36.8397 90.1759 36.4096 91.2621 34.9449 91.237C33.9696 91.2204 33.4429 91.588 32.5802 92.8877C31.3683 94.7132 30.9228 94.8627 29.6204 93.881C28.779 93.2467 28.8107 93.1217 30.8731 88.9431C32.0368 86.5852 33.234 83.5666 33.5333 82.235C34.0381 79.9899 34.1768 79.8043 35.4441 79.679C36.5034 79.5742 36.8754 79.7474 37.0989 80.4493C37.2574 80.9473 37.7524 81.3547 38.1987 81.3547C38.6451 81.3547 39.8427 82.048 40.86 82.8953C43.7019 85.2622 46.0203 84.9048 48.75 81.679C50.9697 79.0559 54.4217 78.3211 55.6618 80.2077C57.0951 82.3884 55.0639 85.1928 51.3253 86.1951C49.8083 86.6018 49.0354 87.0928 48.6043 87.924C47.8377 89.4019 48.4419 90.5982 49.9549 90.5982C52.0943 90.5982 58.0803 85.9389 58.0803 84.2737C58.0803 83.3427 61.7664 80.1573 63.4681 79.6178C64.3967 79.3233 65.2208 78.7289 65.376 78.2415C65.6949 77.2399 67.6693 76.1316 70.36 75.4438C72.1138 74.9955 72.3741 74.7331 73.6716 72.1037C74.9354 69.5428 75.215 69.2501 76.3984 69.2501C78.0192 69.2501 78.3162 70.2323 77.3251 72.3146C76.3726 74.3155 76.4413 74.7522 77.7083 74.7522C79.2809 74.7522 81.0417 75.6636 81.0339 76.4735C81.0189 78.0254 80.2677 78.4417 77.4347 78.4679L74.6476 78.4937L73.6812 80.916C73.1497 82.2483 72.3145 84.7782 71.8253 86.5381L70.9359 89.7378L72.1769 89.007C72.8596 88.6051 75.1311 86.4404 77.2248 84.1967C82.4173 78.6323 86.2923 76.9064 88.5469 79.1539C89.7837 80.3868 89.6485 82.172 88.0955 85.115C87.3615 86.506 86.8208 87.7038 86.894 87.7767C86.9673 87.8498 87.8087 87.4724 88.764 86.9382C90.0248 86.2332 90.6684 85.4857 91.1122 84.2111C92.595 79.9525 95.414 72.964 96.7771 70.1678C97.5932 68.4937 98.261 67.1072 98.261 67.0866C98.2611 67.0662 86.2042 67.0966 71.4679 67.155C54.2037 67.223 44.0764 67.1001 42.9926 66.8091C41.7642 66.4794 41.2368 66.065 41.0373 65.2729C40.8872 64.6764 40.5715 64.1883 40.3358 64.1883C40.1001 64.1883 38.7804 65.1642 37.4032 66.3569C29.7773 72.9614 22.579 74.6925 18.7426 70.8447C17.8683 69.9677 17.0562 68.9538 16.938 68.5914C16.764 68.058 16.4361 68.1507 15.2141 69.0792C12.0024 71.5192 9.00557 72.7288 6.11731 72.7508C3.68814 72.7693 3.23829 72.6298 2.0432 71.4885C0.183724 69.7125 -0.383831 67.8103 0.247922 65.4715C1.09195 62.3468 2.69499 59.1352 5.6588 54.6313C20.5833 31.9511 21.9842 29.5978 23.5508 24.5733C24.9945 19.9432 24.1546 19.1111 18.4813 19.5507C14.9941 19.8209 14.8278 19.7903 13.7072 18.6733C12.3657 17.336 12.4982 16.204 14.2017 14.4495C15.2043 13.4168 15.5483 13.349 19.7861 13.349C23.7893 13.349 24.5232 13.474 26.2499 14.4495C33.8104 18.7207 31.507 27.0164 16.6148 49.1497C9.18788 60.1879 6.43563 64.8078 6.42378 66.2562C6.41046 67.9041 12.6783 63.9055 17.7115 59.0551C28.6906 48.4752 43.4646 28.2639 48.1702 17.3868C48.8852 15.7341 49.9235 14.0731 50.4775 13.6958C51.954 12.69 54.1055 13.4058 54.8148 15.1387C55.2928 16.3064 55.2195 16.8243 54.2244 19.3121C53.2561 21.7328 48.2184 30.9507 47.5001 31.616C47.3694 31.7371 47.0637 32.1771 46.8209 32.5939C45.3432 35.1301 35.1642 49.0003 32.6914 51.8471C29.8332 55.1377 26.857 58.3827 23.953 61.3747L20.9164 64.5034L21.9975 65.6664C22.5922 66.306 23.478 66.8293 23.966 66.8293C26.5497 66.8293 31.065 64.1683 35.6854 59.9227C38.5384 57.301 44.3642 50.6409 46.5851 47.462C47.1771 46.6147 47.7872 45.8223 47.9408 45.7013C48.5303 45.2369 54.9431 35.5765 57.7292 30.9557C60.7681 25.9157 66.0281 15.5998 66.0281 14.68C66.0281 14.1279 67.8515 13.129 68.8594 13.129C69.1795 13.129 69.965 13.5395 70.6048 14.0412C72.2905 15.363 72.1012 16.8687 69.5797 22.1977C64.3133 33.3276 56.1224 45.8172 47.1896 56.3386C45.4083 58.4367 43.9508 60.2689 43.9508 60.4102C43.9508 60.5514 50.5575 60.6472 58.6322 60.6231C66.707 60.599 72.8348 60.4457 72.2495 60.2825C71.6644 60.1193 70.81 59.4844 70.3511 58.8717C69.6795 57.9749 69.605 57.5264 69.9693 56.5713C70.5054 55.1656 70.3085 55.1082 68.7456 56.2149C67.4386 57.1405 62.9399 59.0711 61.0438 59.5203C59.1004 59.9806 56.3189 58.9349 55.3728 57.3882C53.2125 53.8568 54.9753 49.2359 62.1821 39.539C65.8959 34.5419 68.3078 32.0561 69.4426 32.0561C70.5479 32.0561 72.1297 33.5657 72.4792 34.954C72.6904 35.7926 72.4372 36.4676 71.4521 37.6929C66.7585 43.5307 61.1711 51.5672 61.1711 52.4802C61.1711 53.4838 65.4581 51.3563 69.1958 48.4977C71.6599 46.6131 73.9927 45.9805 74.6383 47.0218C75.2457 48.0016 76.1337 47.3017 78.4075 44.0507C85.0116 34.6086 94.451 23.1621 101.573 15.9603C110.854 6.5738 116.869 2.46935 124.074 0.604941C130.257 -0.995065 134.468 0.652865 134.468 4.67259C134.468 8.14152 131.862 10.8967 121.001 18.9136C117.28 21.6596 107.249 28.3373 104.332 30.0102C101.953 31.3747 101.685 31.7274 103.449 31.1728C104.117 30.9629 105.955 30.384 107.533 29.8864C111.821 28.5348 113.073 28.6705 114.09 30.5966C115.438 33.148 114.434 33.9165 105.931 36.8428C94.8686 40.6502 93.7533 41.2322 96.0975 41.9739C96.631 42.1427 97.4008 43.1149 97.9105 44.2636C98.8643 46.4131 98.7944 48.1067 97.6103 51.5327C97.2611 52.5431 97.0459 53.4401 97.132 53.5259C97.4111 53.8041 102.396 51.1255 105.882 48.8244C109.585 46.3799 111.309 46.0276 112.602 47.4516C113.578 48.5273 113.923 48.3278 115.105 46.0016C115.619 44.9891 116.759 43.2274 117.637 42.0866C118.516 40.9458 119.93 39.0774 120.78 37.9346C123.088 34.8313 125.299 32.5995 126.366 32.2951C127.012 32.1109 127.672 32.3461 128.428 33.0305C130.509 34.9152 130.364 35.5525 126.83 40.0376C122.048 46.1061 118.572 51.4353 118.572 52.6996C118.572 53.655 123.491 50.9976 127.228 48.0236C128.365 47.1181 129.531 46.5816 130.36 46.5816C132.906 46.5816 134.161 49.5656 132.426 51.4903C130.045 54.1298 122.444 58.5308 118.897 59.3232C114.772 60.2446 111.954 58.1515 111.951 54.1644C111.951 52.0171 112.597 51.8507 106.871 55.4688C103.107 57.8474 99.0198 59.7788 96.9391 60.1618C96.0876 60.3185 101.419 60.5459 108.787 60.667L122.184 60.887L123.027 61.9262C124.078 63.2211 124.104 64.6868 123.098 65.9114C122.351 66.82 121.95 66.8558 111.188 66.9749C105.063 67.0428 99.9137 67.2358 99.745 67.4039C99.5764 67.5721 99.6489 67.7096 99.9063 67.7096C100.742 67.7096 100.903 69.0126 100.248 70.4685C98.1589 75.108 95.1582 82.8102 95.3609 83.0122C95.4921 83.143 96.0335 82.6995 96.5643 82.027C97.4856 80.8593 100.492 79.1841 101.703 79.1636C102.826 79.1447 104.443 81.2654 104.443 82.7575V84.2001L105.513 82.6299C106.898 80.5985 108.591 79.5146 110.462 79.4617C111.65 79.4281 112.227 79.7323 113.261 80.9373C114.82 82.7561 114.851 83.1101 113.715 86.0913C112.793 88.5081 112.561 90.5983 113.213 90.5983C113.7 90.5983 116.643 88.2717 117.8 86.9723C118.926 85.7073 120.316 82.7287 120.329 81.5529C120.349 79.6321 122.541 78.894 123.531 80.4745C123.835 80.9586 124.314 81.3548 124.597 81.3548C124.88 81.3548 125.944 82.0481 126.961 82.8954C127.979 83.7427 129.239 84.4668 129.763 84.5044C131.391 84.6215 132.904 84.3938 133.342 83.9659C133.91 83.4098 135.672 83.4458 136.029 84.0208C136.687 85.0829 135.776 86.5478 134.021 87.2477C131.227 88.362 128.791 88.1675 126.37 86.6368C125.221 85.9105 124.139 85.3163 123.964 85.3163C123.657 85.3163 120.338 90.3583 120.338 90.8247C120.338 90.9518 119.839 91.8443 119.229 92.8079C118.084 94.6154 116.875 95.0438 115.974 93.9614C115.58 93.4877 115.105 93.4618 113.694 93.8373C111.746 94.3556 110.811 94.0305 109.991 92.5497C109.732 92.0817 109.472 91.6174 109.413 91.518C109.353 91.4187 108.956 91.6423 108.53 92.0152C107.108 93.2576 104.802 94.1945 103.789 93.941C102.477 93.6129 101.618 91.515 102.03 89.6467L102.349 88.1967L100.857 89.3863C100.036 90.0405 98.1362 91.2765 96.6346 92.1328C91.9562 94.8007 89.8716 94.6503 89.8716 91.6449C89.8716 89.9195 89.9892 89.9702 87.9527 90.8184C87.0809 91.1816 85.4914 91.4787 84.4205 91.4787C83.2554 91.4787 82.2593 91.7358 81.9403 92.119C80.9512 93.3071 77.5816 95 76.206 95C75.1367 95 74.7268 94.7371 74.3186 93.7895C74.0318 93.1238 73.7593 92.5178 73.7131 92.4429C73.6668 92.368 72.8656 92.7146 71.9325 93.2132C70.9993 93.7117 69.8965 94.1197 69.4817 94.1197C68.4163 94.1197 67.3527 92.4215 67.3527 90.7205C67.3527 88.8779 66.3028 88.792 65.3859 90.5594C64.6029 92.0689 62.8617 93.515 60.786 94.3797C58.7579 95.2246 57.9214 95.1605 56.9458 94.0858ZM61.1275 93.0416C62.1808 92.4986 63.3662 91.302 65.6193 88.5074C65.8633 88.2048 66.4407 87.9572 66.9025 87.9572C67.3643 87.9572 67.8841 87.7282 68.0576 87.4483C68.2845 87.0825 67.9196 87.0128 66.7597 87.2005C65.4523 87.412 65.0594 87.2998 64.6885 86.6089C64.3557 85.989 63.7602 85.7564 62.5063 85.7564C61.5577 85.7564 60.6498 85.5436 60.4886 85.2836C60.1269 84.7003 61.8403 82.8169 63.5293 81.9411C64.6609 81.3544 64.8663 81.3652 65.6267 82.0511C66.4301 82.7759 66.4697 82.7695 66.4697 81.9144C66.4697 79.8696 62.9194 80.5344 60.5784 83.0176C58.8704 84.8291 59.1479 85.9109 61.3976 86.2119C64.7198 86.6563 65.1014 87.5123 62.5547 88.8075C60.083 90.0645 58.0803 91.8686 58.0803 92.8381C58.0803 93.8646 59.3644 93.9504 61.1275 93.0416ZM59.4049 92.2337C59.4049 91.6062 61.6338 90.1508 62.5638 90.171C63.2302 90.1859 60.5208 92.799 59.8395 92.799C59.6005 92.799 59.4049 92.5446 59.4049 92.2337ZM80.644 91.8833C82.0279 90.7906 82.9663 90.4166 84.5201 90.3382C86.7931 90.2236 90.3131 88.9867 90.3131 88.3025C90.3131 88.0514 89.9819 88.0048 89.5404 88.1937C87.7552 88.9576 84.7676 89.5983 84.4333 89.2889C84.2351 89.1054 84.9802 87.5571 86.0891 85.8482C88.4491 82.2115 88.7572 80.2141 87.025 79.7807C86.4307 79.632 85.2882 79.7273 84.4861 79.9924C82.5993 80.6161 78.3553 84.7103 78.6911 85.5827C78.8754 86.0614 79.3242 85.7829 80.4143 84.5133C81.225 83.5692 82.542 82.5334 83.341 82.2116C84.14 81.8898 84.9527 81.3673 85.1469 81.0504C85.3411 80.7336 85.9135 80.4744 86.4189 80.4744C87.2211 80.4744 87.3062 80.6685 87.0891 82.0026C86.8224 83.6402 84.9344 86.6396 83.099 88.3412C81.7544 89.5877 79.8787 89.3527 79.328 87.8688C79.1007 87.2561 78.8685 87.1035 78.6645 87.4327C78.2418 88.1145 79.1454 89.7179 79.9523 89.7179C81.1054 89.7179 80.6371 91.0282 79.1641 91.9236C77.0459 93.211 75.7421 93.0918 75.7421 91.6106C75.7421 90.7292 75.6136 90.5503 75.2446 90.9181C74.954 91.2078 74.8714 91.9081 75.046 92.6017C75.3215 93.6958 75.4819 93.7711 77.0815 93.5572C78.1124 93.4193 79.56 92.7392 80.644 91.8833ZM32.9417 89.8846C34.9532 86.252 37.0944 83.5555 37.9673 83.5555C38.2687 83.5555 38.8934 83.972 39.3555 84.4809C40.5303 85.775 42.3479 86.6367 43.9028 86.6367C46.0415 86.6367 45.8765 85.8888 43.6834 85.6424C42.1929 85.4749 41.2815 85.043 40.1867 83.9852C38.957 82.797 38.4769 82.6001 37.3545 82.8239C36.1381 83.0664 36.003 82.9845 36.003 82.004C36.003 80.1791 35.3839 80.7908 34.5378 83.4516C34.0962 84.8403 33.1293 87.1649 32.3892 88.6175C30.6133 92.1029 30.1941 93.2392 30.6844 93.2392C30.9043 93.2392 31.92 91.7296 32.9417 89.8846ZM95.707 91.4377C98.6591 89.9482 99.9217 88.9287 101.315 86.9097C103.855 83.2291 103.405 79.9601 100.497 80.9707C99.3321 81.3755 95.8829 84.6396 94.2689 86.8645C93.9146 87.3528 93.1058 88.0822 92.4716 88.4853C91.1847 89.3031 90.4641 91.6996 91.2288 92.6181C91.7554 93.2506 92.5057 93.0529 95.707 91.4377ZM92.5208 91.1264C92.5208 90.4214 96.4106 85.4881 98.4034 83.6656C100.701 81.5642 102.236 81.2115 102.233 82.7852C102.233 83.8709 100.907 86.2812 99.4386 87.8722C97.5793 89.8865 92.5208 92.2661 92.5208 91.1264ZM98.3713 86.8998C99.7411 85.6404 100.467 84.6114 100.464 83.9334C100.459 82.9679 100.341 83.0184 98.7757 84.656C96.8161 86.7054 95.3427 88.8396 95.8921 88.8329C96.1021 88.8295 97.2178 87.9604 98.3713 86.8998ZM115.743 91.7001C117.4 90.3793 116.847 89.7762 115.134 91.0381C114.406 91.575 113.372 91.9304 112.782 91.8471C111.313 91.6401 111.177 89.4971 112.411 86.0126L113.377 83.2831L112.075 81.8616C110.959 80.6439 110.615 80.4995 109.677 80.855C107.151 81.8125 102.893 88.7062 103.197 91.3468C103.31 92.3323 103.59 92.6077 104.595 92.7223C105.544 92.8305 106.375 92.426 107.986 91.0717C109.16 90.085 110.234 89.2777 110.372 89.2777C110.511 89.2777 110.624 89.7729 110.624 90.3781C110.624 91.8972 112.015 93.1886 113.373 92.9299C113.97 92.8161 115.036 92.2627 115.743 91.7001ZM104.168 91.2766C103.587 89.7691 106.981 83.4259 109.112 82.0336C110.557 81.09 111.507 81.7612 111.507 83.7254C111.507 85.3967 109.065 89.1796 106.947 90.7906C105.26 92.0727 104.524 92.2016 104.168 91.2766ZM108.437 87.4391C110.05 85.4045 110.752 83.1154 109.764 83.1154C108.867 83.1154 105.767 88.069 105.767 89.5019C105.767 90.49 106.414 89.9904 108.437 87.4391ZM118.115 92.3878C118.819 91.0772 118.661 90.8219 117.689 91.6986C116.743 92.5522 116.539 93.2392 117.232 93.2392C117.466 93.2392 117.863 92.8561 118.115 92.3878ZM53.1305 91.9571C55.424 90.7785 58.5218 88.0284 58.5218 87.171C58.5218 86.6784 57.9334 87.0198 56.6453 88.2597C51.8401 92.8849 46.5804 93.162 47.1729 88.7587C47.3991 87.0769 46.932 86.46 46.4266 87.7731C45.8955 89.1527 46.1767 90.7808 47.1186 91.7803C48.3282 93.0639 50.8336 93.1376 53.1305 91.9571ZM72.585 91.4758C73.5929 90.748 74.4175 89.9557 74.4175 89.7151C74.4175 89.0767 74.2663 89.1439 72.4305 90.5982C70.1404 92.4124 69.5605 92.3182 69.5605 90.1321C69.5605 89.0531 69.3856 88.4532 69.1189 88.6175C68.6278 88.92 68.5095 92.0448 68.9717 92.5056C69.5778 93.1097 70.8079 92.7591 72.585 91.4758ZM78.3914 90.2944C78.3914 89.4279 77.3263 89.8115 77.145 90.7432C77.0458 91.2538 77.2128 91.3951 77.697 91.2098C78.0789 91.0638 78.3914 90.6518 78.3914 90.2944ZM61.1656 87.8472C61.1756 87.2153 60.3263 87.5237 59.2069 88.5579C57.6075 90.0355 57.8121 90.3393 59.6202 89.1717C60.4672 88.6248 61.1626 88.0287 61.1656 87.8472ZM83.206 86.1287C85.5652 83.4118 85.6826 83.1154 84.3988 83.1154C82.8904 83.1154 81.097 84.7985 80.7642 86.5267C80.3791 88.5261 81.2471 88.3847 83.206 86.1287ZM77.5646 86.7467C78.1138 86.0486 78.0982 86.0331 77.3979 86.5806C76.9729 86.9128 76.6252 87.2594 76.6252 87.3508C76.6252 87.7131 76.9878 87.48 77.5646 86.7467ZM134.136 85.9801C134.561 85.8053 134.909 85.4641 134.909 85.222C134.909 84.9637 134.59 84.9256 134.136 85.13C133.712 85.3215 132.357 85.557 131.127 85.6533C129.099 85.812 128.691 85.6768 126.761 84.2087C124.962 82.8393 124.478 82.6591 123.633 83.0428C122.398 83.6038 122.043 83.2934 122.381 81.9497C122.526 81.3754 122.443 80.9146 122.196 80.9146C121.532 80.9146 120.573 85.2858 121.118 85.8291C121.414 86.1246 121.76 86.0035 122.164 85.4634C123.705 83.4003 124.21 83.3263 126.149 84.8797C128.727 86.9447 131.023 87.261 134.136 85.9801ZM68.6657 84.8949C69.3289 83.8252 70.5515 79.5549 70.2738 79.2781C69.6685 78.6746 68.4505 79.9258 67.7814 81.8383C67.0493 83.931 65.7969 84.5997 64.9 83.3768C64.4205 82.7232 64.288 82.7331 63.3451 83.4943L62.3144 84.3263L63.7246 84.635C64.5002 84.8049 65.2606 85.1466 65.4143 85.3945C65.7327 85.9081 68.2803 85.5165 68.6657 84.8949ZM52.0992 84.6927C54.7845 83.5742 55.8203 80.472 53.5072 80.476C52.3277 80.4773 49.7496 82.0104 49.4007 82.9168C48.9272 84.147 49.564 84.0546 50.9278 82.695C52.3311 81.296 53.6648 80.9314 53.6648 81.9467C53.6648 82.7775 52.3418 83.8718 50.9052 84.2292C50.2373 84.3954 49.6909 84.7079 49.6909 84.9238C49.6909 85.4778 50.3709 85.4126 52.0992 84.6927ZM72.2118 81.349C73.7948 76.9727 74.2177 76.6333 77.5349 77.0768C79.3027 77.3132 80.2836 76.8242 79.015 76.3389C78.6323 76.1925 77.4279 76.0727 76.3386 76.0727C74.488 76.0727 74.3781 76.0077 74.6652 75.0823C74.8341 74.5376 75.3442 73.3571 75.7988 72.4589C76.7276 70.6234 76.7859 70.3505 76.2494 70.3505C76.0427 70.3505 75.2593 71.7371 74.5084 73.4317C73.4679 75.7801 72.9311 76.5129 72.2515 76.5129C71.761 76.5129 70.2595 76.9233 68.9147 77.4248C67.0072 78.1363 66.4697 78.5416 66.4697 79.2685V80.2002L67.3037 79.3078C68.1204 78.4339 72.0208 77.0582 72.4549 77.4909C72.5757 77.6113 72.0733 79.3359 71.3384 81.323C69.8423 85.3679 69.8546 85.3162 70.3894 85.3162C70.6025 85.3162 71.4226 83.531 72.2118 81.349ZM93.4084 84.2999C93.4126 83.9017 97.0499 74.7666 99.4458 69.1401C99.5746 68.8375 99.4884 68.5899 99.2543 68.5899C98.5141 68.5899 92.5208 82.9243 92.5208 84.6946C92.5208 85.0651 92.7195 85.2458 92.9624 85.0961C93.2052 84.9466 93.4059 84.5882 93.4084 84.2999ZM10.5978 69.865C15.8548 67.1609 24.7314 58.7886 32.4836 49.2225C33.5626 47.891 34.5548 46.7026 34.6884 46.5815C35.408 45.9299 41.4181 37.4045 44.8591 32.1544C49.2843 25.4027 52.7689 18.7704 52.9095 16.8324C52.9813 15.8442 52.8002 15.5248 52.1194 15.4377C51.3936 15.3449 50.7922 16.2461 48.7422 20.4992C40.8442 36.8852 18.6759 63.5267 9.478 67.6865C7.07663 68.7725 4.73123 68.8644 4.35504 67.8871C3.77622 66.3835 7.19314 59.8842 13.4735 50.543C14.857 48.4852 16.752 45.6132 17.6846 44.1606C18.6172 42.7081 20.1676 40.3312 21.1301 38.8786C23.6022 35.1476 26.9656 28.3392 27.8482 25.2794C28.3163 23.6566 28.5162 21.8488 28.3817 20.454C28.2033 18.6031 27.9191 18.0174 26.7115 17.0124C24.9505 15.5468 21.3689 14.7241 18.4634 15.1179C15.1175 15.5713 14.7433 15.7474 14.8935 16.798C15.0228 17.7031 15.2527 17.7506 19.5061 17.7506C23.2052 17.7506 24.1365 17.889 24.8686 18.5473C26.7783 20.2644 26.3251 23.5867 23.326 29.8552C21.1478 34.4081 21.3582 34.0666 12.0571 48.1431C4.43455 59.6793 3.18466 61.8447 2.22962 65.1692C1.61687 67.3021 1.59472 67.8768 2.08577 68.8978C3.29172 71.405 6.82362 71.8063 10.5978 69.865ZM28.0777 70.2047C36.1238 66.9048 47.2697 55.1476 58.1922 38.4384C62.6061 31.6862 66.4138 24.8326 68.4475 19.9797C69.9471 16.4014 70.0153 15.3208 68.7405 15.3414C68.2515 15.3497 67.2236 17.0327 65.5865 20.507C60.9614 30.3229 50.4035 46.6001 43.9663 53.8389C34.8339 64.1087 28.7817 68.5757 23.9864 68.5856C22.3538 68.5889 21.8026 68.3999 21.432 67.7095C20.9201 66.7561 20.2502 66.6134 19.2493 67.2446C18.2704 67.862 19.3592 69.82 21.1011 70.5748C23.1601 71.4669 25.2736 71.3548 28.0777 70.2047ZM121.884 63.9681C121.884 63.1207 121.549 63.0833 112.942 62.9686L104.001 62.8495V64.0691V65.2887L112.943 65.0686C121.517 64.8575 121.884 64.8123 121.884 63.9682L121.884 63.9681ZM60.6499 64.0781C60.5097 63.0935 60.4572 63.087 51.7099 62.9681C42.7372 62.8462 41.5012 63.0569 42.7055 64.5035C43.0596 64.9288 45.3533 65.0685 51.9834 65.0685H60.791L60.6499 64.0781ZM64.4499 64.3346C64.6053 63.931 64.5405 63.4095 64.3061 63.1757C63.6559 62.5276 62.4957 63.1674 62.4957 64.1743C62.4957 65.2784 64.0379 65.4048 64.4499 64.3346ZM97.8194 63.968V62.8676H82.1445H66.4697V63.968V65.0685H82.1445H97.8194V63.968ZM102.014 63.975C102.014 62.9679 100.532 62.4948 100.01 63.3355C99.4644 64.2164 100.055 65.128 101.077 64.9826C101.673 64.8979 102.014 64.5308 102.014 63.975ZM92.4707 59.9614C89.5369 58.7465 89.1984 56.369 91.1864 50.9387C91.9097 48.9633 92.4106 47.2005 92.2996 47.0214C92.1886 46.8424 91.063 46.5967 89.7985 46.4756C88.1514 46.3179 87.2795 45.9849 86.7246 45.3018L85.95 44.3482L84.2391 46.6756C82.1123 49.5688 78.7489 54.3729 76.5471 57.6624C75.6278 59.0358 74.5242 60.2508 74.0946 60.3624C73.6651 60.474 77.9829 60.5781 83.6899 60.5937C93.3154 60.62 93.9508 60.5742 92.4707 59.9614ZM76.7344 54.175C80.6764 48.3276 83.8471 43.7663 84.1543 43.5009C84.2945 43.3798 85.5767 41.6965 87.0039 39.76C88.4311 37.8236 90.4794 35.1496 91.5556 33.8178C92.6318 32.486 94.1337 30.607 94.8932 29.6423C101.953 20.6746 113.787 9.83313 119.873 6.75917C124.159 4.59372 129.486 3.70208 129.937 5.07437C130.243 6.00383 126.547 9.51209 120.752 13.7937C115.669 17.5489 104.612 25.038 100.358 27.6071C98.5308 28.7108 98.0772 30.2959 99.5889 30.2959C101.477 30.2959 120.511 17.5716 127.792 11.442C135.236 5.17492 134.084 0.549174 125.484 2.16932C117.746 3.62697 107.707 11.1902 96.9156 23.6934C95.3485 25.5091 93.9587 27.0937 93.8273 27.2147C92.8965 28.0719 85.1637 38.1005 80.5475 44.437C71.6728 56.619 70.6804 58.4666 73.0116 58.4666C73.5689 58.4666 74.7911 57.0576 76.7344 54.175ZM100.624 56.7803C104.358 55.0299 109.862 51.6808 111.206 50.341C111.806 49.7433 111.865 49.4321 111.468 48.9564C110.706 48.0406 110.239 48.1761 107.463 50.117C104.229 52.3781 96.7502 56.2658 95.6337 56.2658C94.2148 56.2658 94.1642 55.5027 95.3552 52.0647C96.4627 48.8678 96.8162 45.5524 96.1568 44.5467C95.3791 43.3604 92.6627 42.1837 90.6983 42.1821C87.0377 42.1787 86.8482 44.3993 90.4877 44.6493C93.0931 44.8282 94.287 45.4803 94.287 46.7242C94.287 47.2696 93.6752 49.4646 92.9274 51.602C91.5699 55.4823 91.4939 57.3819 92.6662 58.1253C93.9762 58.956 97.1144 58.4256 100.624 56.7803ZM64.7225 56.2562C70.5989 53.299 74.3293 50.3357 73.8249 49.0254C73.4407 48.0274 73.0637 48.1519 70.4129 50.152C69.0941 51.1471 66.436 52.7317 64.506 53.6734C59.0788 56.3213 57.6743 55.8817 59.368 52.0647C60.3464 49.8598 65.6457 41.6639 67.0397 40.1997C68.3089 38.8664 70.4436 35.7027 70.4436 35.1547C70.4436 34.377 69.1942 34.1182 68.5615 34.7649C68.0717 35.2655 62.7129 41.9131 61.6966 43.2808C60.2597 45.2146 57.4508 50.0835 56.9407 51.5249C54.956 57.1324 58.5903 59.3421 64.7225 56.2562ZM123.005 55.8167C126.869 53.8722 131.357 50.5037 131.368 49.5394C131.385 48.0009 130.069 48.2556 127.308 50.3248C122.717 53.7646 117.319 56.0731 116.282 55.0396C115.175 53.9361 119.599 46.1523 125.258 39.2439C128.012 35.8833 128.597 34.0888 126.859 34.3368C126.218 34.4283 124.601 36.0929 122.232 39.0992C114.771 48.5667 112.245 54.3508 114.488 56.8309C115.63 58.094 119.363 57.6495 123.005 55.8167ZM89.8716 39.9796C89.8716 39.7375 89.7839 39.5394 89.6768 39.5394C89.5697 39.5394 89.3594 39.7375 89.2092 39.9796C89.0592 40.2217 89.1468 40.4197 89.404 40.4197C89.6611 40.4197 89.8716 40.2217 89.8716 39.9796ZM95.1032 39.025C96.1911 38.5 100.575 36.8343 104.846 35.3236C109.212 33.7793 112.611 32.3393 112.611 32.0345C112.611 30.4753 111.168 30.6331 104.408 32.9312C94.4892 36.3033 91.6378 37.6446 91.6378 38.9381C91.6378 40.2576 92.504 40.2794 95.1032 39.025ZM99.0604 32.7038C99.1358 32.6413 98.6677 32.0619 98.0201 31.4163C97.3725 30.7708 96.7816 30.3041 96.7069 30.3793C95.921 31.1713 93.8455 34.0237 93.8455 34.3118C93.8455 34.606 98.4955 33.1722 99.0604 32.7038ZM98.9232 27.6549C99.0733 27.4128 98.9975 27.2147 98.7545 27.2147C98.5117 27.2147 98.1902 27.4128 98.0401 27.6549C97.8901 27.897 97.9659 28.0951 98.2088 28.0951C98.4516 28.0951 98.7731 27.897 98.9232 27.6549ZM114.594 15.9005C121.31 11.1864 126.52 7.09969 126.52 6.54532C126.52 6.06713 122.312 7.43782 120.225 8.59563C117.952 9.85746 114.17 12.6288 111.088 15.291C107.844 18.0942 103.118 22.8439 103.118 23.3013C103.118 23.6974 107.65 20.7745 114.594 15.9005ZM129.491 4.94047C129.344 4.79424 128.964 4.7786 128.645 4.9057C128.292 5.04627 128.397 5.1505 128.912 5.17163C129.377 5.19075 129.638 5.08666 129.491 4.94047ZM72.4104 31.4163C71.8143 30.8221 71.3266 29.9189 71.3266 29.4092C71.3266 28.5001 75.2192 24.0034 76.6815 23.2232C77.7838 22.6351 79.953 23.556 80.5519 24.8663C81.3038 26.5115 80.8054 27.5966 78.1084 30.1858C75.3742 32.8107 74.0879 33.0885 72.4104 31.4163ZM76.8343 28.7437C78.9244 26.6601 79.3073 25.6079 78.1378 25.1605C77.6856 24.9876 76.7601 25.5626 75.4886 26.8066C73.6608 28.5948 73.1336 29.7497 73.8287 30.4426C74.381 30.9931 74.8359 30.7359 76.8343 28.7437ZM129.811 31.4163C128.188 29.7982 128.453 28.7571 131.223 25.8615C133.252 23.7413 133.983 23.2532 135.129 23.2532C136.865 23.2532 138 24.4144 138 26.192C138 27.241 137.449 28.0449 135.384 30.0088C132.479 32.7707 131.435 33.0345 129.811 31.4163ZM134.317 28.6549C136.364 26.4326 136.656 25.5881 135.53 25.1571C135.057 24.9764 134.087 25.6241 132.582 27.1238C130.664 29.0357 130.422 29.4597 130.912 30.048C131.785 31.0967 132.239 30.9109 134.317 28.6549Z" fill="#0A2640"/>
</svg>
