<svg width="48" height="48" viewBox="0 0 48 48" fill="none" xmlns="http://www.w3.org/2000/svg">
<path d="M17.1 11.3C17.3667 13.4 17.5833 15.5083 17.75 17.625C17.9167 19.7417 18 21.8667 18 24C18 26.1333 17.9167 28.2583 17.75 30.375C17.5833 32.4917 17.3667 34.6 17.1 36.7L27.75 28.4L19.8 22.2L25.4 17.85L17.1 11.3ZM8 6C8 5.43333 8.19167 4.95833 8.575 4.575C8.95833 4.19167 9.43333 4 10 4L38 4C38.5667 4 39.0417 4.19167 39.425 4.575C39.8083 4.95833 40 5.43333 40 6C40 6.26667 39.8417 6.85833 39.525 7.775C39.2083 8.69167 38.8667 9.91667 38.5 11.45C38.1333 12.9833 37.7917 14.7917 37.475 16.875C37.1583 18.9583 37 21.3333 37 24C37 26.6667 37.1583 29.0417 37.475 31.125C37.7917 33.2083 38.1333 35.0167 38.5 36.55C38.8667 38.0833 39.2083 39.3083 39.525 40.225C39.8417 41.1417 40 41.7333 40 42C40 42.5667 39.8083 43.0417 39.425 43.425C39.0417 43.8083 38.5667 44 38 44L10 44C9.43333 44 8.95833 43.8083 8.575 43.425C8.19166 43.0417 8 42.5667 8 42C8 41.7333 8.15833 41.1417 8.475 40.225C8.79167 39.3083 9.13333 38.0833 9.5 36.55C9.86667 35.0167 10.2083 33.2083 10.525 31.125C10.8417 29.0417 11 26.6667 11 24C11 21.3333 10.8417 18.9583 10.525 16.875C10.2083 14.7917 9.86667 12.9833 9.5 11.45C9.13333 9.91667 8.79167 8.69167 8.475 7.775C8.15833 6.85833 8 6.26667 8 6ZM11.35 7C12.3167 9.73333 13 12.525 13.4 15.375C13.8 18.225 14 21.1 14 24C14 26.9 13.8 29.775 13.4 32.625C13 35.475 12.3167 38.2667 11.35 41L36.6 41C35.6667 38.2667 35 35.475 34.6 32.625C34.2 29.775 34 26.9 34 24C34 21.1 34.2 18.225 34.6 15.375C35 12.525 35.6667 9.73333 36.6 7L11.35 7Z" fill="#0A2640"/>
</svg>
