<svg width="95" height="39" viewBox="0 0 95 39" fill="none" xmlns="http://www.w3.org/2000/svg">
<path d="M91.8632 19.3475C91.3779 19.6099 90.8634 19.8046 90.3338 19.9237C88.1356 20.4162 85.8693 19.5849 84.4698 17.8669C81.2505 23.6246 76.676 28.6155 71.2489 32.2238C67.1066 34.9743 62.5289 36.9242 57.6448 38.0186C54.2973 38.7694 50.8927 39.0913 47.5 38.9778C44.1073 39.0912 40.7035 38.7693 37.3552 38.0186C32.4711 36.9242 27.8942 34.9743 23.751 32.2238C18.324 28.6155 13.7503 23.6246 10.5309 17.8669C9.13065 19.5849 6.86438 20.4162 4.66694 19.9237C4.13659 19.8047 3.62206 19.6099 3.13683 19.3475C0.245976 17.7703 -0.844052 14.0992 0.704267 11.162C4.04869 4.82322 10.7724 0.447157 17.834 0.011812C19.4204 -0.0878715 20.9489 0.447162 22.137 1.51984C23.3268 2.59173 24.0345 4.06918 24.1294 5.68184C24.2813 8.23278 22.8447 10.5166 20.6901 11.5329C22.9833 15.7931 26.2944 19.4691 30.2586 22.1021C34.758 25.0956 40.0536 26.759 45.4126 26.899C46.1084 26.9195 46.8034 26.9127 47.5 26.8762C48.1966 26.9116 48.8916 26.9189 49.5882 26.899C54.9472 26.759 60.2428 25.0956 64.7421 22.1021C68.7063 19.4691 72.0168 15.7931 74.3099 11.5329C72.1553 10.5166 70.7193 8.23278 70.8705 5.68184C70.9654 4.06918 71.674 2.59173 72.8637 1.51984C74.0519 0.447162 75.5796 -0.0879855 77.166 0.011812C84.2276 0.447157 90.9521 4.82322 94.2957 11.162C95.844 14.0992 94.754 17.7703 91.8632 19.3475Z" fill="#69E6A6"/>
</svg>
