<svg width="40" height="32" viewBox="0 0 40 32" fill="none" xmlns="http://www.w3.org/2000/svg">
<path d="M14.3 14.1L12.6 18L8.7 19.7L12.6 21.4L14.3 25.3L16 21.4L19.9 19.7L16 18L14.3 14.1ZM27.6 13.5L26.35 16.2L23.65 17.45L26.35 18.7L27.6 21.4L28.85 18.7L31.55 17.45L28.85 16.2L27.6 13.5ZM3 0L6.7 7.6H13.2L9.5 0H13.95L17.65 7.6H24.15L20.45 0H24.9L28.6 7.6H35.1L31.4 0H37C37.8 0 38.5 0.3 39.1 0.9C39.7 1.5 40 2.2 40 3V29C40 29.8 39.7 30.5 39.1 31.1C38.5 31.7 37.8 32 37 32H3C2.2 32 1.5 31.7 0.9 31.1C0.3 30.5 0 29.8 0 29V3C0 2.2 0.3 1.5 0.9 0.9C1.5 0.3 2.2 0 3 0ZM3 10.6V29H37V10.6H3Z" fill="#0A2640"/>
</svg>
